<?xml version="1.0" encoding="UTF-8"?>
<svg width="24px" height="24px" viewBox="0 0 24 24" version="1.1" xmlns="http://www.w3.org/2000/svg" xmlns:xlink="http://www.w3.org/1999/xlink">
    <title>player-alt / airplay</title>
    <g id="player-alt-/-airplay" stroke="none" stroke-width="1" fill="none" fill-rule="evenodd">
        <path d="M18.4361148,3 C19.3998961,3 19.9133638,3.09915518 20.4484446,3.38531951 C20.948639,3.6528264 21.3471736,4.05136104 21.6146805,4.55155544 C21.9008448,5.08663621 22,5.60010387 22,6.5638852 L22,13.4361148 C22,14.3998961 21.9008448,14.9133638 21.6146805,15.4484446 C21.3471736,15.948639 20.948639,16.3471736 20.4484446,16.6146805 C19.9133638,16.9008448 19.3998961,17 18.4361148,17 L18.222,17 L16.444,14.999 L18.6055565,14.9990108 L18.8843407,14.9906622 C18.924825,14.9885146 18.962552,14.9859728 18.9978708,14.9830126 L19.1836763,14.9600376 C19.3190844,14.9363856 19.4117343,14.9010651 19.5052468,14.8510541 C19.6569043,14.7699468 19.7699468,14.6569043 19.8510541,14.5052468 C19.9010651,14.4117343 19.9363856,14.3190844 19.9600376,14.1836763 L19.9830126,13.9978708 C19.9859728,13.962552 19.9885146,13.924825 19.9906622,13.8843407 L19.9990108,13.6055565 L19.9990108,6.39444355 L19.9906622,6.11565933 C19.9885146,6.07517503 19.9859728,6.03744797 19.9830126,6.00212917 L19.9600376,5.81632374 C19.9363856,5.68091561 19.9010651,5.58826569 19.8510541,5.49475316 C19.7699468,5.3430957 19.6569043,5.2300532 19.5052468,5.1489459 C19.4117343,5.09893485 19.3190844,5.06361445 19.1836763,5.03996242 L18.9978708,5.01698737 C18.962552,5.01402719 18.924825,5.01148539 18.8843407,5.00933779 L18.6055565,5.00098918 L5.39444355,5.00098918 L5.08907445,5.01082819 C4.78359374,5.0289037 4.64021709,5.07115094 4.49475316,5.1489459 C4.3430957,5.2300532 4.2300532,5.3430957 4.1489459,5.49475316 C4.09893485,5.58826569 4.06361445,5.68091561 4.03996242,5.81632374 L4.01698737,6.00212917 C4.01402719,6.03744797 4.01148539,6.07517503 4.00933779,6.11565933 L4.00098918,6.39444355 L4.00098918,13.6055565 L4.01082819,13.9109256 C4.0289037,14.2164063 4.07115094,14.3597829 4.1489459,14.5052468 C4.2300532,14.6569043 4.3430957,14.7699468 4.49475316,14.8510541 C4.58826569,14.9010651 4.68091561,14.9363856 4.81632374,14.9600376 L5.00212917,14.9830126 C5.03744797,14.9859728 5.07517503,14.9885146 5.11565933,14.9906622 L5.39444355,14.9990108 L7.555,14.999 L5.777,17 L5.5638852,17 C4.68041898,17 4.17534133,16.9166821 3.68514846,16.6823764 L3.55155544,16.6146805 C3.05136104,16.3471736 2.6528264,15.948639 2.38531951,15.4484446 C2.09915518,14.9133638 2,14.3998961 2,13.4361148 L2,6.5638852 C2,5.60010387 2.09915518,5.08663621 2.38531951,4.55155544 C2.6528264,4.05136104 3.05136104,3.6528264 3.55155544,3.38531951 C4.08663621,3.09915518 4.60010387,3 5.5638852,3 Z" id="Combined-Shape" fill="#000000"></path>
        <path d="M12.7474093,12.8408355 L18.5205655,19.3356362 C18.8874835,19.7484189 18.8503028,20.3804913 18.43752,20.7474093 C18.2544689,20.9101214 18.0180703,21 17.7731562,21 L6.22684384,21 C5.67455909,21 5.22684384,20.5522847 5.22684384,20 C5.22684384,19.7550858 5.31672241,19.5186873 5.47943452,19.3356362 L11.2525907,12.8408355 C11.6195087,12.4280527 12.2515811,12.390872 12.6643638,12.75779 C12.6936487,12.783821 12.7213783,12.8115506 12.7474093,12.8408355 Z" id="Triangle" fill="#000000"></path>
    </g>
</svg>