<?xml version="1.0" encoding="UTF-8"?>
<svg width="24px" height="24px" viewBox="0 0 24 24" version="1.1" xmlns="http://www.w3.org/2000/svg" xmlns:xlink="http://www.w3.org/1999/xlink">
    <title>player-alt / file</title>
    <g id="player-alt-/-file" stroke="none" stroke-width="1" fill="none" fill-rule="evenodd">
        <path d="M11.2849709,3 C12.1269419,3 12.9474432,3.26568598 13.629605,3.75921443 L18.7584755,7.46983469 C19.5382413,8.03397733 20,8.93798348 20,9.90042387 L20,20 C20,20.5522847 19.5522847,21 19,21 L5,21 C4.44771525,21 4,20.5522847 4,20 L4,4 C4,3.44771525 4.44771525,3 5,3 L11.2849709,3 Z M9.19989325,9.04039434 C9.02908994,8.94330618 8.88888889,9.0273038 8.88888889,9.22729814 L8.88888889,15.7725673 C8.88888889,15.9725617 9.02908994,16.0565593 9.19989325,15.9598348 L14.9830086,12.676655 C15.1538119,12.5795668 15.1538119,12.4202986 14.9830086,12.3232105 Z" id="Combined-Shape" fill="#000000"></path>
    </g>
</svg>