<?xml version="1.0" encoding="UTF-8"?>
<svg width="24px" height="24px" viewBox="0 0 24 24" version="1.1" xmlns="http://www.w3.org/2000/svg" xmlns:xlink="http://www.w3.org/1999/xlink">
    <title>player-alt / fs-enter</title>
    <g id="player-alt-/-fs-enter" stroke="none" stroke-width="1" fill="none" fill-rule="evenodd" stroke-linecap="round">
        <g id="Group" transform="translate(3, 3)" stroke="#000000" stroke-width="2">
            <line x1="0.5" y1="0.5" x2="0.5" y2="6.5" id="Line-5"></line>
            <line x1="0.5" y1="0.5" x2="6.5" y2="0.5" id="Line"></line>
        </g>
        <g id="Group-4" transform="translate(3, 14)" stroke="#000000" stroke-width="2">
            <line x1="3.5" y1="3.5" x2="3.5" y2="9.5" id="Line-5" transform="translate(3.5, 6.5) rotate(270) translate(-3.5, -6.5)"></line>
            <line x1="-2.5" y1="3.5" x2="3.5" y2="3.5" id="Line" transform="translate(0.5, 3.5) rotate(270) translate(-0.5, -3.5)"></line>
        </g>
        <g id="Group-3" transform="translate(14, 14)" stroke="#000000" stroke-width="2">
            <line x1="6.5" y1="0.5" x2="6.5" y2="6.5" id="Line-5" transform="translate(6.5, 3.5) rotate(540) translate(-6.5, -3.5)"></line>
            <line x1="0.5" y1="6.5" x2="6.5" y2="6.5" id="Line" transform="translate(3.5, 6.5) rotate(540) translate(-3.5, -6.5)"></line>
        </g>
        <g id="Group-2" transform="translate(14, 3)" stroke="#000000" stroke-width="2">
            <line x1="3.5" y1="-2.5" x2="3.5" y2="3.5" id="Line-5" transform="translate(3.5, 0.5) rotate(90) translate(-3.5, -0.5)"></line>
            <line x1="3.5" y1="3.5" x2="9.5" y2="3.5" id="Line" transform="translate(6.5, 3.5) rotate(90) translate(-6.5, -3.5)"></line>
        </g>
    </g>
</svg>