<?xml version="1.0" encoding="UTF-8"?>
<svg width="24px" height="24px" viewBox="0 0 24 24" version="1.1" xmlns="http://www.w3.org/2000/svg" xmlns:xlink="http://www.w3.org/1999/xlink">
    <title>player-alt / loop</title>
    <g id="player-alt-/-loop" stroke="none" stroke-width="1" fill="none" fill-rule="evenodd">
        <path d="M12.4472136,15.8944272 L15.6381966,22.2763932 C15.7616912,22.5233825 15.6615791,22.823719 15.4145898,22.9472136 C15.3451621,22.9819275 15.2686056,23 15.190983,23 L8.80901699,23 C8.53287462,23 8.30901699,22.7761424 8.30901699,22.5 C8.30901699,22.4223775 8.32708954,22.3458209 8.3618034,22.2763932 L11.5527864,15.8944272 C11.676281,15.6474379 11.9766175,15.5473258 12.2236068,15.6708204 C12.3203705,15.7192022 12.3988317,15.7976635 12.4472136,15.8944272 Z" id="Triangle-Copy" fill="#000000" transform="translate(12, 19) rotate(270) translate(-12, -19)"></path>
        <path d="M12.4472136,2.89442719 L15.6381966,9.2763932 C15.7616912,9.52338245 15.6615791,9.82371897 15.4145898,9.9472136 C15.3451621,9.98192745 15.2686056,10 15.190983,10 L8.80901699,10 C8.53287462,10 8.30901699,9.77614237 8.30901699,9.5 C8.30901699,9.42237745 8.32708954,9.34582092 8.3618034,9.2763932 L11.5527864,2.89442719 C11.676281,2.64743794 11.9766175,2.54732577 12.2236068,2.67082039 C12.3203705,2.71920224 12.3988317,2.79766349 12.4472136,2.89442719 Z" id="Triangle-Copy-2" fill="#000000" transform="translate(12, 6) rotate(90) translate(-12, -6)"></path>
        <path d="M10,6 L6,6 C4.34314575,6 3,7.34314575 3,9 L3,16 C3,17.6568542 4.34314575,19 6,19 L6,19 L6,19" id="Path-4" stroke="#000000" stroke-width="2" stroke-linecap="round"></path>
        <path d="M21,6 L17,6 C15.3431458,6 14,7.34314575 14,9 L14,16 C14,17.6568542 15.3431458,19 17,19 L17,19 L17,19" id="Path-4-Copy" stroke="#000000" stroke-width="2" stroke-linecap="round" transform="translate(17.5, 12.5) rotate(180) translate(-17.5, -12.5)"></path>
    </g>
</svg>