<?xml version="1.0" encoding="UTF-8"?>
<svg width="24px" height="24px" viewBox="0 0 24 24" version="1.1" xmlns="http://www.w3.org/2000/svg" xmlns:xlink="http://www.w3.org/1999/xlink">
    <title>player-alt / pip-bg</title>
    <g id="player-alt-/-pip-bg" stroke="none" stroke-width="1" fill="none" fill-rule="evenodd">
        <path d="M5.5638852,5 L18.4361148,5 C19.3276335,5 19.6509198,5.09282561 19.9768457,5.2671327 C20.3027716,5.4414398 20.5585602,5.69722837 20.7328673,6.0231543 C20.9071744,6.34908022 21,6.67236646 21,7.5638852 L21,16.4361148 C21,17.3276335 20.9071744,17.6509198 20.7328673,17.9768457 C20.5585602,18.3027716 20.3027716,18.5585602 19.9768457,18.7328673 C19.6509198,18.9071744 19.3276335,19 18.4361148,19 L5.5638852,19 C4.67236646,19 4.34908022,18.9071744 4.0231543,18.7328673 C3.69722837,18.5585602 3.4414398,18.3027716 3.2671327,17.9768457 C3.09282561,17.6509198 3,17.3276335 3,16.4361148 L3,7.5638852 C3,6.67236646 3.09282561,6.34908022 3.2671327,6.0231543 C3.4414398,5.69722837 3.69722837,5.4414398 4.0231543,5.2671327 C4.34908022,5.09282561 4.67236646,5 5.5638852,5 Z" id="Rectangle-Copy" stroke="#000000" stroke-width="2" stroke-linecap="round" stroke-linejoin="round"></path>
        <rect id="Rectangle" fill="#000000" x="10" y="10" width="8" height="6" rx="2"></rect>
    </g>
</svg>