<?xml version="1.0" encoding="UTF-8"?>
<svg width="24px" height="24px" viewBox="0 0 24 24" version="1.1" xmlns="http://www.w3.org/2000/svg" xmlns:xlink="http://www.w3.org/1999/xlink">
    <title>player-filled / playlist-prev</title>
    <g id="player-filled-/-playlist-prev" stroke="none" stroke-width="1" fill="none" fill-rule="evenodd">
        <path d="M8.94117647,6.38965395 C8.94117647,6.04680651 9.19565905,5.90281059 9.50568858,6.06924744 L20.002772,11.6969322 C20.3128015,11.8633691 20.3128015,12.1364003 20.002772,12.3028371 L9.50568858,17.9311453 C9.19565905,18.0969588 8.94117647,17.9529629 8.94117647,17.6101154 L8.94117647,6.38965395 Z" id="Fill-1-Copy" fill="#000000" transform="translate(14.5882, 12) rotate(180) translate(-14.5882, -12)"></path>
        <path d="M11.1666667,17.3333333 C11.1666667,17.7 10.9095238,18 10.5952381,18 L7.73809524,18 C7.42380952,18 7.16666667,17.7 7.16666667,17.3333333 L7.16666667,6.66666667 C7.16666667,6.3 7.42380952,6 7.73809524,6 L10.5952381,6 C10.9095238,6 11.1666667,6.3 11.1666667,6.66666667 L11.1666667,17.3333333 Z" id="Fill-1-Copy" fill="#000000"></path>
    </g>
</svg>