<?xml version="1.0" encoding="UTF-8"?>
<svg width="24px" height="24px" viewBox="0 0 24 24" version="1.1" xmlns="http://www.w3.org/2000/svg" xmlns:xlink="http://www.w3.org/1999/xlink">
    <title>player-filled / playlist</title>
    <g id="player-filled-/-playlist" stroke="none" stroke-width="1" fill="none" fill-rule="evenodd">
        <path d="M19,3 C20.1045695,3 21,3.8954305 21,5 L21,19 C21,20.1045695 20.1045695,21 19,21 L5,21 C3.8954305,21 3,20.1045695 3,19 L3,5 C3,3.8954305 3.8954305,3 5,3 L19,3 Z M16.4090909,15.75 L7.40909091,15.75 C6.71873497,15.75 6.15909091,16.3096441 6.15909091,17 C6.15909091,17.6903559 6.71873497,18.25 7.40909091,18.25 L16.4090909,18.25 C17.0994468,18.25 17.6590909,17.6903559 17.6590909,17 C17.6590909,16.3096441 17.0994468,15.75 16.4090909,15.75 Z M16.4090909,10.75 L7.40909091,10.75 C6.71873497,10.75 6.15909091,11.3096441 6.15909091,12 C6.15909091,12.6903559 6.71873497,13.25 7.40909091,13.25 L16.4090909,13.25 C17.0994468,13.25 17.6590909,12.6903559 17.6590909,12 C17.6590909,11.3096441 17.0994468,10.75 16.4090909,10.75 Z M16.4090909,5.75 L7.40909091,5.75 C6.71873497,5.75 6.15909091,6.30964406 6.15909091,7 C6.15909091,7.69035594 6.71873497,8.25 7.40909091,8.25 L16.4090909,8.25 C17.0994468,8.25 17.6590909,7.69035594 17.6590909,7 C17.6590909,6.30964406 17.0994468,5.75 16.4090909,5.75 Z" id="Combined-Shape" fill="#000000"></path>
    </g>
</svg>