<?xml version="1.0" encoding="UTF-8"?>
<svg width="24px" height="24px" viewBox="0 0 24 24" version="1.1" xmlns="http://www.w3.org/2000/svg" xmlns:xlink="http://www.w3.org/1999/xlink">
    <title>player-filled / playlist-next</title>
    <g id="player-filled-/-playlist-next" stroke="none" stroke-width="1" fill="none" fill-rule="evenodd">
        <path d="M3.89019608,6.38965395 C3.89019608,6.04680651 4.14467866,5.90281059 4.45470819,6.06924744 L14.9517916,11.6969322 C15.2618211,11.8633691 15.2618211,12.1364003 14.9517916,12.3028371 L4.45470819,17.9311453 C4.14467866,18.0969588 3.89019608,17.9529629 3.89019608,17.6101154 L3.89019608,6.38965395 Z" id="Fill-1-Copy-2" fill="#000000"></path>
        <path d="M17.1666667,17.3333333 C17.1666667,17.7 16.9095238,18 16.5952381,18 L13.7380952,18 C13.4238095,18 13.1666667,17.7 13.1666667,17.3333333 L13.1666667,6.66666667 C13.1666667,6.3 13.4238095,6 13.7380952,6 L16.5952381,6 C16.9095238,6 17.1666667,6.3 17.1666667,6.66666667 L17.1666667,17.3333333 Z" id="Fill-1-Copy-2" fill="#000000"></path>
    </g>
</svg>