<?xml version="1.0" encoding="UTF-8"?>
<svg width="24px" height="24px" viewBox="0 0 24 24" version="1.1" xmlns="http://www.w3.org/2000/svg" xmlns:xlink="http://www.w3.org/1999/xlink">
    <title>player-alt / reset</title>
    <g id="player-alt-/-reset" stroke="none" stroke-width="1" fill="none" fill-rule="evenodd">
        <path d="M12,19.75 C15.8659932,19.75 19,16.6159932 19,12.75 C19,8.88400675 15.8659932,5.75 12,5.75 C8.13400675,5.75 5,8.88400675 5,12.75" id="Oval" stroke="#000000" stroke-width="2" stroke-linecap="round" transform="translate(12, 12.75) rotate(-270) translate(-12, -12.75)"></path>
        <path d="M9.53054693,3.14442719 L12.8048633,9.69305987 C12.9283579,9.94004912 12.8282457,10.2403856 12.5812565,10.3638803 C12.5118288,10.3985941 12.4352722,10.4166667 12.3576497,10.4166667 L5.80901699,10.4166667 C5.53287462,10.4166667 5.30901699,10.192809 5.30901699,9.91666667 C5.30901699,9.83904412 5.32708954,9.76248759 5.3618034,9.69305987 L8.63611974,3.14442719 C8.75961436,2.89743794 9.05995088,2.79732577 9.30694013,2.92082039 C9.40370383,2.96920224 9.48216508,3.04766349 9.53054693,3.14442719 Z" id="Triangle" fill="#000000" transform="translate(9.0833, 6.3333) rotate(-90) translate(-9.0833, -6.3333)"></path>
    </g>
</svg>