<?xml version="1.0" encoding="UTF-8"?>
<svg width="24px" height="24px" viewBox="0 0 24 24" version="1.1" xmlns="http://www.w3.org/2000/svg" xmlns:xlink="http://www.w3.org/1999/xlink">
    <title>player-alt / settings</title>
    <g id="player-alt-/-settings" stroke="none" stroke-width="1" fill="none" fill-rule="evenodd">
        <path d="M12.0009634,15 C10.1589595,15 8.66666667,13.431886 8.66666667,11.5 C8.66666667,9.56716418 10.1589595,8 12.0009634,8 C13.8410405,8 15.3333333,9.56716418 15.3333333,11.5 C15.3333333,13.431886 13.8410405,15 12.0009634,15 L12.0009634,15 Z M19.3536364,9.78036261 C18.8663636,9.66473501 18.3072727,9.18154328 18.1127273,8.70587204 L17.6554545,7.81657363 C17.3772727,7.38696542 17.2690909,6.63021572 17.4136364,6.13480318 L17.9936364,4.15973346 C18.1381818,3.66526099 17.9081818,3.03917987 17.4827273,2.76750202 L16.5172727,2.15458177 C16.0918182,1.88384399 15.4781818,1.98443059 15.1554545,2.37925653 L13.9390909,3.86079383 C13.6154545,4.2546797 12.9472727,4.50943643 12.4536364,4.426711 C12.4536364,4.426711 12.4445455,4.42483087 11.9736364,4.42483087 L11.5181818,4.42483087 C11.0354545,4.50473612 10.3763636,4.24809927 10.0527273,3.85327333 L8.84090909,2.37643634 C8.51818182,1.98255047 7.90454545,1.8810238 7.47909091,2.15176158 L6.51363636,2.7656219 C6.08818182,3.03635968 5.85818182,3.6624408 6.00272727,4.15691328 L6.57,6.09062028 C6.71545455,6.58509275 6.60363636,7.33996233 6.32363636,7.76769042 L5.83272727,8.71433259 C5.63727273,9.19000383 5.07818182,9.67319557 4.59090909,9.7878831 L2.88636364,10.1892895 C2.39818182,10.3049171 2,10.821951 2,11.338985 L2,12.6560115 C2,13.1721054 2.39818182,13.6891393 2.88636364,13.8047669 L4.60727273,14.2099335 C5.09454545,14.3255611 5.65636364,14.8078128 5.85363636,15.2816039 L6.32909091,16.1887635 C6.61,16.6164916 6.72090909,17.3713612 6.57636364,17.8658336 L5.99818182,19.8399633 C5.85363636,20.3344358 6.08272727,20.9605169 6.50909091,21.2331348 L7.47454545,21.846055 C7.9,22.1177329 8.51363636,22.0162062 8.83727273,21.6223204 L10.0863636,20.0984803 C10.4090909,19.7045944 11.0590909,19.4441973 11.5290909,19.5212824 L11.9736364,19.5212824 L12.43,19.5212824 C12.9118182,19.4413771 13.5709091,19.698954 13.8945455,20.09378 L15.1509091,21.6242005 C15.4745455,22.0180863 16.0872727,22.118673 16.5136364,21.8479352 L17.4772727,21.2340749 C17.9036364,20.9633371 18.1327273,20.3363159 17.9881818,19.8418434 L17.3981818,17.8310514 C17.2536364,17.3365789 17.3636364,16.5807692 17.6427273,16.1521011 L18.0854545,15.3032253 C18.2845455,14.8284942 18.8454545,14.3462425 19.3327273,14.2306149 L21.1136364,13.8113474 C21.6018182,13.6957198 22,13.1786858 22,12.6616518 L22,11.3446253 C22,10.8275914 21.6018182,10.3105574 21.1136364,10.1949298 L19.3536364,9.78036261 Z" id="Fill-1" fill="#000000"></path>
    </g>
</svg>