<?xml version="1.0" encoding="UTF-8"?>
<svg width="24px" height="24px" viewBox="0 0 24 24" version="1.1" xmlns="http://www.w3.org/2000/svg" xmlns:xlink="http://www.w3.org/1999/xlink">
    <title>player-alt / subtitles</title>
    <g id="player-alt-/-subtitles" stroke="none" stroke-width="1" fill="none" fill-rule="evenodd">
        <path d="M12,3 C17.5228475,3 22,6.35786438 22,10.5 C22,12.9562278 20.425689,15.1366805 17.9925701,16.5047308 L17.9929199,22 L13.0594408,17.9584083 C12.7113063,17.9859027 12.3578482,18 12,18 C6.4771525,18 2,14.6421356 2,10.5 C2,6.35786438 6.4771525,3 12,3 Z M6.75,9 C5.78350169,9 5,9.78350169 5,10.75 C5,11.7164983 5.78350169,12.5 6.75,12.5 C7.71649831,12.5 8.5,11.7164983 8.5,10.75 C8.5,9.78350169 7.71649831,9 6.75,9 Z M12,9 C11.0335017,9 10.25,9.78350169 10.25,10.75 C10.25,11.7164983 11.0335017,12.5 12,12.5 C12.9664983,12.5 13.75,11.7164983 13.75,10.75 C13.75,9.78350169 12.9664983,9 12,9 Z M17.25,9 C16.2835017,9 15.5,9.78350169 15.5,10.75 C15.5,11.7164983 16.2835017,12.5 17.25,12.5 C18.2164983,12.5 19,11.7164983 19,10.75 C19,9.78350169 18.2164983,9 17.25,9 Z" id="Combined-Shape" fill="#000000"></path>
    </g>
</svg>