<?xml version="1.0" encoding="UTF-8"?>
<svg width="24px" height="24px" viewBox="0 0 24 24" version="1.1" xmlns="http://www.w3.org/2000/svg" xmlns:xlink="http://www.w3.org/1999/xlink">
    <title>player / airplay</title>
    <g id="player-/-airplay" stroke="none" stroke-width="1" fill="none" fill-rule="evenodd">
        <path d="M18.4361148,3.25 C19.362155,3.25 19.8366332,3.34162598 20.3305448,3.60577281 C20.7871721,3.84997975 21.1500203,4.21282787 21.3942272,4.66945515 C21.658374,5.16336677 21.75,5.63784504 21.75,6.5638852 L21.75,13.4361148 C21.75,14.362155 21.658374,14.8366332 21.3942272,15.3305448 C21.1500203,15.7871721 20.7871721,16.1500203 20.3305448,16.3942272 C19.8366332,16.658374 19.362155,16.75 18.4361148,16.75 L17.806,16.75 L16.472,15.25 L18.4361148,15.25 C19.1357079,15.25 19.3762498,15.2035492 19.6231466,15.0715074 C19.8183711,14.9671002 19.9671002,14.8183711 20.0715074,14.6231466 C20.2035492,14.3762498 20.25,14.1357079 20.25,13.4361148 L20.25,6.5638852 C20.25,5.86429211 20.2035492,5.62375016 20.0715074,5.37685344 C19.9671002,5.18162887 19.8183711,5.03289985 19.6231466,4.9284926 C19.3762498,4.79645079 19.1357079,4.75 18.4361148,4.75 L5.5638852,4.75 C4.86429211,4.75 4.62375016,4.79645079 4.37685344,4.9284926 C4.18162887,5.03289985 4.03289985,5.18162887 3.9284926,5.37685344 C3.79645079,5.62375016 3.75,5.86429211 3.75,6.5638852 L3.75,13.4361148 C3.75,14.1357079 3.79645079,14.3762498 3.9284926,14.6231466 C4.03289985,14.8183711 4.18162887,14.9671002 4.37685344,15.0715074 C4.62375016,15.2035492 4.86429211,15.25 5.5638852,15.25 L7.527,15.25 L6.193,16.75 L5.5638852,16.75 C4.63784504,16.75 4.16336677,16.658374 3.66945515,16.3942272 C3.21282787,16.1500203 2.84997975,15.7871721 2.60577281,15.3305448 C2.34162598,14.8366332 2.25,14.362155 2.25,13.4361148 L2.25,6.5638852 C2.25,5.63784504 2.34162598,5.16336677 2.60577281,4.66945515 C2.84997975,4.21282787 3.21282787,3.84997975 3.66945515,3.60577281 C4.16336677,3.34162598 4.63784504,3.25 5.5638852,3.25 L18.4361148,3.25 Z" id="Combined-Shape" fill="#000000" fill-rule="nonzero"></path>
        <path d="M11.9853195,13.4743807 L17.0711196,19.052659 C17.1169844,19.1042569 17.1375929,19.1695603 17.1338359,19.2334305 C17.1300788,19.2973007 17.1019561,19.3597376 17.0503582,19.4056023 C17.0045954,19.4462804 16.9454958,19.46875 16.8842673,19.46875 L7.11573273,19.46875 C7.04669714,19.46875 6.98419714,19.4407678 6.93895604,19.3955267 C6.89371493,19.3502856 6.86573273,19.2877856 6.86573273,19.21875 C6.86573273,19.1575215 6.88820237,19.0984218 6.9288804,19.052659 L11.8131477,13.5578584 C11.8590124,13.5062605 11.9214493,13.4781378 11.9853195,13.4743807 Z" id="Triangle" stroke="#000000" stroke-width="1.5"></path>
    </g>
</svg>