<?xml version="1.0" encoding="UTF-8"?>
<svg width="24px" height="24px" viewBox="0 0 24 24" version="1.1" xmlns="http://www.w3.org/2000/svg" xmlns:xlink="http://www.w3.org/1999/xlink">
    <title>player / cancel</title>
    <g id="player-/-cancel" stroke="none" stroke-width="1" fill="none" fill-rule="evenodd">
        <g id="playercancel" transform="translate(4, 4)" fill="#DB0720" fill-rule="nonzero">
            <path d="M8,0 C12.418278,0 16,3.581722 16,8 C16,12.418278 12.418278,16 8,16 C3.581722,16 0,12.418278 0,8 C0,3.581722 3.581722,0 8,0 Z M5.5144,3.6295 C4.9934,3.1075 4.1494,3.1075 3.6284,3.6295 C3.1074,4.1495 3.1074,4.9935 3.6284,5.5145 L6.1144,8.0005 L3.6284,10.4855 C3.1074,11.0065 3.1074,11.8505 3.6284,12.3715 C3.8894,12.6315 4.2294,12.7615 4.5714,12.7615 C4.9124,12.7615 5.2534,12.6315 5.5144,12.3715 L8.0004,9.8855 L10.4854,12.3715 C10.7464,12.6315 11.0874,12.7615 11.4294,12.7615 C11.7694,12.7615 12.1104,12.6315 12.3714,12.3715 C12.8924,11.8505 12.8924,11.0065 12.3714,10.4855 L9.8854,8.0005 L12.3714,5.5145 C12.8924,4.9935 12.8924,4.1495 12.3714,3.6295 C11.8504,3.1075 11.0074,3.1075 10.4854,3.6295 L8.0004,6.1145 L5.5144,3.6295 Z" id="Combined-Shape"></path>
        </g>
    </g>
</svg>