<?xml version="1.0" encoding="UTF-8"?>
<svg width="24px" height="24px" viewBox="0 0 24 24" version="1.1" xmlns="http://www.w3.org/2000/svg" xmlns:xlink="http://www.w3.org/1999/xlink">
    <title>player / chromecast</title>
    <g id="player-/-chromecast" stroke="none" stroke-width="1" fill="none" fill-rule="evenodd">
        <path d="M4,7.5638852 L4,7.473488 C4,6.6904459 4.09282561,6.34908022 4.2671327,6.0231543 C4.4414398,5.69722837 4.69722837,5.4414398 5.0231543,5.2671327 C5.34908022,5.09282561 5.6904459,5 6.473488,5 L18.4361148,5 C19.3276335,5 19.6509198,5.09282561 19.9768457,5.2671327 C20.3027716,5.4414398 20.5585602,5.69722837 20.7328673,6.0231543 C20.9071744,6.34908022 21,6.67236646 21,7.5638852 L21,15.4361148 C21,16.3276335 20.9071744,16.6509198 20.7328673,16.9768457 C20.5585602,17.3027716 20.3027716,17.5585602 19.9768457,17.7328673 C19.6509198,17.9071744 19.3276335,18 18.4361148,18 L14.7902832,18" id="Shape" stroke="#000000" stroke-width="2" stroke-linecap="round" stroke-linejoin="round"></path>
        <path d="M11,19.5 C11,14.8055796 7.19442037,11 2.5,11" id="Shape-Copy" stroke="#000000" stroke-width="2" stroke-linecap="round"></path>
        <path d="M7,19.5 C7,17.0147186 4.98528137,15 2.5,15" id="Shape-Copy-2" stroke="#000000" stroke-width="2" stroke-linecap="round"></path>
        <circle id="Oval-Copy-6" fill="#000000" cx="2.5" cy="19.5" r="1.5"></circle>
    </g>
</svg>