<?xml version="1.0" encoding="UTF-8"?>
<svg width="24px" height="24px" viewBox="0 0 24 24" version="1.1" xmlns="http://www.w3.org/2000/svg" xmlns:xlink="http://www.w3.org/1999/xlink">
    <title>player / continue</title>
    <g id="player-/-continue" stroke="none" stroke-width="1" fill="none" fill-rule="evenodd">
        <path d="M17.9472136,3.39442719 L20.6381966,8.7763932 C20.7616912,9.02338245 20.6615791,9.32371897 20.4145898,9.4472136 C20.3451621,9.48192745 20.2686056,9.5 20.190983,9.5 L14.809017,9.5 C14.5328746,9.5 14.309017,9.27614237 14.309017,9 C14.309017,8.92237745 14.3270895,8.84582092 14.3618034,8.7763932 L17.0527864,3.39442719 C17.176281,3.14743794 17.4766175,3.04732577 17.7236068,3.17082039 C17.8203705,3.21920224 17.8988317,3.29766349 17.9472136,3.39442719 Z" id="Triangle-Copy-4" fill="#000000" transform="translate(17.5, 6) rotate(90) translate(-17.5, -6)"></path>
        <path d="M15,6 L6,6 C4.34314575,6 3,7.34314575 3,9 L3,16 C3,17.6568542 4.34314575,19 6,19 L15,19 L15,19" id="Path-3" stroke="#000000" stroke-width="1.5" stroke-linecap="round"></path>
    </g>
</svg>