<?xml version="1.0" encoding="UTF-8"?>
<svg width="24px" height="24px" viewBox="0 0 24 24" version="1.1" xmlns="http://www.w3.org/2000/svg" xmlns:xlink="http://www.w3.org/1999/xlink">
    <title>player / file</title>
    <g id="player-/-file" stroke="none" stroke-width="1" fill="none" fill-rule="evenodd">
        <path d="M11.2849709,3.75 C11.9690724,3.75 12.6357296,3.96586985 13.1899861,4.36686173 L18.3188567,8.07748199 C18.903681,8.50058896 19.25,9.17859357 19.25,9.90042387 L19.25,20 L5,20.25 L4.75,4 Z" id="Rectangle-Copy-3" stroke="#000000" stroke-width="1.5"></path>
        <path d="M12.9318895,10.2403819 L15.561371,14.7480645 C15.7005111,14.9865904 15.619943,15.2927493 15.381417,15.4318895 C15.304949,15.4764958 15.2180088,15.5 15.1294815,15.5 L9.8705185,15.5 C9.59437612,15.5 9.3705185,15.2761424 9.3705185,15 C9.3705185,14.9114727 9.3940227,14.8245325 9.43862905,14.7480645 L12.0681105,10.2403819 C12.2072507,10.001856 12.5134096,9.92128784 12.7519355,10.060428 C12.8264373,10.1038874 12.8884301,10.1658801 12.9318895,10.2403819 Z" id="rr" fill="#000000" transform="translate(12.5, 12.5) rotate(90) translate(-12.5, -12.5)"></path>
    </g>
</svg>