<?xml version="1.0" encoding="UTF-8"?>
<svg width="24px" height="24px" viewBox="0 0 24 24" version="1.1" xmlns="http://www.w3.org/2000/svg" xmlns:xlink="http://www.w3.org/1999/xlink">
    <title>player / fs-exit</title>
    <g id="player-/-fs-exit" stroke="none" stroke-width="1" fill="none" fill-rule="evenodd" stroke-linecap="round">
        <line x1="5.5" y1="12.5" x2="5.5" y2="18.5" id="Line-5" stroke="#000000" stroke-width="1.5" transform="translate(5.5, 15.5) rotate(90) translate(-5.5, -15.5)"></line>
        <line x1="5.5" y1="18.5" x2="11.5" y2="18.5" id="Line" stroke="#000000" stroke-width="1.5" transform="translate(8.5, 18.5) rotate(90) translate(-8.5, -18.5)"></line>
        <line x1="8.5" y1="2.5" x2="8.5" y2="8.5" id="Line-5" stroke="#000000" stroke-width="1.5" transform="translate(8.5, 5.5) rotate(540) translate(-8.5, -5.5)"></line>
        <line x1="2.5" y1="8.5" x2="8.5" y2="8.5" id="Line" stroke="#000000" stroke-width="1.5" transform="translate(5.5, 8.5) rotate(540) translate(-5.5, -8.5)"></line>
        <line x1="18.5" y1="5.5" x2="18.5" y2="11.5" id="Line-5" stroke="#000000" stroke-width="1.5" transform="translate(18.5, 8.5) rotate(270) translate(-18.5, -8.5)"></line>
        <line x1="12.5" y1="5.5" x2="18.5" y2="5.5" id="Line" stroke="#000000" stroke-width="1.5" transform="translate(15.5, 5.5) rotate(270) translate(-15.5, -5.5)"></line>
        <line x1="15.5" y1="15.5" x2="15.5" y2="21.5" id="Line-5" stroke="#000000" stroke-width="1.5"></line>
        <line x1="15.5" y1="15.5" x2="21.5" y2="15.5" id="Line" stroke="#000000" stroke-width="1.5"></line>
    </g>
</svg>