<?xml version="1.0" encoding="UTF-8"?>
<svg width="24px" height="24px" viewBox="0 0 24 24" version="1.1" xmlns="http://www.w3.org/2000/svg" xmlns:xlink="http://www.w3.org/1999/xlink">
    <title>player / fs-enter</title>
    <g id="player-/-fs-enter" stroke="none" stroke-width="1" fill="none" fill-rule="evenodd" stroke-linecap="round">
        <line x1="3.5" y1="3.5" x2="3.5" y2="9.5" id="Line-5" stroke="#000000" stroke-width="1.5"></line>
        <line x1="3.5" y1="3.5" x2="9.5" y2="3.5" id="Line" stroke="#000000" stroke-width="1.5"></line>
        <line x1="6.5" y1="17.5" x2="6.5" y2="23.5" id="Line-5" stroke="#000000" stroke-width="1.5" transform="translate(6.5, 20.5) rotate(270) translate(-6.5, -20.5)"></line>
        <line x1="0.5" y1="17.5" x2="6.5" y2="17.5" id="Line" stroke="#000000" stroke-width="1.5" transform="translate(3.5, 17.5) rotate(270) translate(-3.5, -17.5)"></line>
        <line x1="20.5" y1="14.5" x2="20.5" y2="20.5" id="Line-5" stroke="#000000" stroke-width="1.5" transform="translate(20.5, 17.5) rotate(540) translate(-20.5, -17.5)"></line>
        <line x1="14.5" y1="20.5" x2="20.5" y2="20.5" id="Line" stroke="#000000" stroke-width="1.5" transform="translate(17.5, 20.5) rotate(540) translate(-17.5, -20.5)"></line>
        <line x1="17.5" y1="0.5" x2="17.5" y2="6.5" id="Line-5" stroke="#000000" stroke-width="1.5" transform="translate(17.5, 3.5) rotate(90) translate(-17.5, -3.5)"></line>
        <line x1="17.5" y1="6.5" x2="23.5" y2="6.5" id="Line" stroke="#000000" stroke-width="1.5" transform="translate(20.5, 6.5) rotate(90) translate(-20.5, -6.5)"></line>
    </g>
</svg>