<?xml version="1.0" encoding="UTF-8"?>
<svg width="24px" height="24px" viewBox="0 0 24 24" version="1.1" xmlns="http://www.w3.org/2000/svg" xmlns:xlink="http://www.w3.org/1999/xlink">
    <title>player / loop</title>
    <g id="player-/-loop" stroke="none" stroke-width="1" fill="none" fill-rule="evenodd">
        <path d="M11.9472136,16.3944272 L14.6381966,21.7763932 C14.7616912,22.0233825 14.6615791,22.323719 14.4145898,22.4472136 C14.3451621,22.4819275 14.2686056,22.5 14.190983,22.5 L8.80901699,22.5 C8.53287462,22.5 8.30901699,22.2761424 8.30901699,22 C8.30901699,21.9223775 8.32708954,21.8458209 8.3618034,21.7763932 L11.0527864,16.3944272 C11.176281,16.1474379 11.4766175,16.0473258 11.7236068,16.1708204 C11.8203705,16.2192022 11.8988317,16.2976635 11.9472136,16.3944272 Z" id="Triangle-Copy" fill="#000000" transform="translate(11.5, 19) rotate(270) translate(-11.5, -19)"></path>
        <path d="M11.9472136,3.39442719 L14.6381966,8.7763932 C14.7616912,9.02338245 14.6615791,9.32371897 14.4145898,9.4472136 C14.3451621,9.48192745 14.2686056,9.5 14.190983,9.5 L8.80901699,9.5 C8.53287462,9.5 8.30901699,9.27614237 8.30901699,9 C8.30901699,8.92237745 8.32708954,8.84582092 8.3618034,8.7763932 L11.0527864,3.39442719 C11.176281,3.14743794 11.4766175,3.04732577 11.7236068,3.17082039 C11.8203705,3.21920224 11.8988317,3.29766349 11.9472136,3.39442719 Z" id="Triangle-Copy-2" fill="#000000" transform="translate(11.5, 6) rotate(90) translate(-11.5, -6)"></path>
        <path d="M10,6 L6,6 C4.34314575,6 3,7.34314575 3,9 L3,16 C3,17.6568542 4.34314575,19 6,19 L6,19 L6,19" id="Path-4" stroke="#000000" stroke-width="1.5" stroke-linecap="round"></path>
        <path d="M21,6 L17,6 C15.3431458,6 14,7.34314575 14,9 L14,16 C14,17.6568542 15.3431458,19 17,19 L17,19 L17,19" id="Path-4-Copy" stroke="#000000" stroke-width="1.5" stroke-linecap="round" transform="translate(17.5, 12.5) rotate(180) translate(-17.5, -12.5)"></path>
    </g>
</svg>