<?xml version="1.0" encoding="UTF-8"?>
<svg width="48px" height="48px" viewBox="0 0 48 48" version="1.1" xmlns="http://www.w3.org/2000/svg" xmlns:xlink="http://www.w3.org/1999/xlink">
    <title>player / notification-error</title>
    <defs>
        <polygon id="path-1" points="0 0.0004 41.9996 0.0004 41.9996 42 0 42"></polygon>
    </defs>
    <g id="player-/-notification-error" stroke="none" stroke-width="1" fill="none" fill-rule="evenodd" opacity="0.404761905">
        <g id="Group-3" transform="translate(3, 3)">
            <mask id="mask-2" fill="white">
                <use xlink:href="#path-1"></use>
            </mask>
            <g id="Clip-2"></g>
            <path d="M32.4746,27.5244 C33.8416,28.8914 33.8416,31.1084 32.4746,32.4754 C31.7906,33.1584 30.8956,33.5004 29.9996,33.5004 C29.1046,33.5004 28.2086,33.1584 27.5256,32.4754 L20.9996,25.9504 L14.4746,32.4754 C13.7906,33.1584 12.8956,33.5004 11.9996,33.5004 C11.1046,33.5004 10.2086,33.1584 9.5256,32.4754 C8.1586,31.1084 8.1586,28.8914 9.5256,27.5244 L16.0506,21.0004 L9.5256,14.4754 C8.1586,13.1084 8.1586,10.8914 9.5256,9.5254 C10.8926,8.1584 13.1076,8.1584 14.4746,9.5254 L20.9996,16.0494 L27.5256,9.5254 C28.8926,8.1584 31.1076,8.1584 32.4746,9.5254 C33.8416,10.8914 33.8416,13.1084 32.4746,14.4754 L25.9496,21.0004 L32.4746,27.5244 Z M20.9996,0.0004 C9.4026,0.0004 -0.0004,9.4024 -0.0004,21.0004 C-0.0004,32.5974 9.4026,42.0004 20.9996,42.0004 C32.5976,42.0004 41.9996,32.5974 41.9996,21.0004 C41.9996,9.4024 32.5976,0.0004 20.9996,0.0004 L20.9996,0.0004 Z" id="Fill-1" fill="#FFFFFF" mask="url(#mask-2)"></path>
        </g>
    </g>
</svg>