<?xml version="1.0" encoding="UTF-8"?>
<svg width="48px" height="48px" viewBox="0 0 48 48" version="1.1" xmlns="http://www.w3.org/2000/svg" xmlns:xlink="http://www.w3.org/1999/xlink">
    <title>player / notification-info</title>
    <defs>
        <polygon id="path-1" points="0 0.0003 41.9998 0.0003 41.9998 42 0 42"></polygon>
    </defs>
    <g id="player-/-notification-info" stroke="none" stroke-width="1" fill="none" fill-rule="evenodd" opacity="0.404761905">
        <g id="Group-3" transform="translate(3, 3)">
            <mask id="mask-2" fill="white">
                <use xlink:href="#path-1"></use>
            </mask>
            <g id="Clip-2"></g>
            <path d="M29.8278,32.7813 C29.4438,33.1203 28.8088,33.6673 27.9238,33.6673 L14.7208,33.6673 C13.8348,33.6673 13.1998,33.1203 12.8158,32.7813 C12.4318,32.4433 12.2398,31.7023 12.2398,30.9323 C12.2398,30.1773 12.4258,30.0593 12.7968,29.7333 C13.1678,29.4083 13.8088,29.6673 14.7208,29.6673 L18.6668,29.6673 L18.6668,19.6673 L16.7128,19.6673 C15.8408,19.6673 15.2158,19.2383 14.8378,18.9063 C14.4598,18.5743 14.2708,17.8933 14.2708,17.1253 C14.2708,16.3573 14.4538,16.1453 14.8178,15.8193 C15.1818,15.4943 15.8138,15.6673 16.7128,15.6673 L22.5918,15.6673 C22.9558,15.6673 23.2078,15.3413 23.4028,15.4903 C23.5988,15.6403 23.6668,15.4453 23.6668,15.7053 L23.6668,29.6673 L27.9238,29.6673 C28.8218,29.6673 29.4598,29.3143 29.8378,29.6393 C30.2158,29.9653 30.4038,30.4353 30.4038,31.1903 C30.4038,31.9593 30.2118,32.4433 29.8278,32.7813 M18.9198,6.7203 C19.2198,6.2653 19.8838,6.0383 20.9118,6.0383 C21.8618,6.0383 22.4938,6.2193 22.8068,6.5843 C23.1188,6.9493 23.2748,7.8223 23.2748,9.2023 C23.2748,10.5293 23.1358,11.3533 22.8548,11.6733 C22.5748,11.9923 21.9148,12.1513 20.8728,12.1513 C19.8568,12.1513 19.2028,12.0023 18.9098,11.7023 C18.6168,11.4023 18.4708,10.8023 18.4708,9.9043 C18.4708,8.2383 18.6198,7.1773 18.9198,6.7203 M20.9998,0.0003 C9.3978,0.0003 -0.0002,9.3973 -0.0002,21.0003 C-0.0002,32.6013 9.3978,42.0003 20.9998,42.0003 C32.6018,42.0003 41.9998,32.6013 41.9998,21.0003 C41.9998,9.3973 32.6018,0.0003 20.9998,0.0003" id="Fill-1" fill="#FFFFFF" mask="url(#mask-2)"></path>
        </g>
    </g>
</svg>