<?xml version="1.0" encoding="UTF-8"?>
<svg width="24px" height="24px" viewBox="0 0 24 24" version="1.1" xmlns="http://www.w3.org/2000/svg" xmlns:xlink="http://www.w3.org/1999/xlink">
    <title>player / playercancel</title>
    <g id="player-/-playercancel" stroke="none" stroke-width="1" fill="none" fill-rule="evenodd">
        <path d="M12,4 C16.418278,4 20,7.581722 20,12 C20,16.418278 16.418278,20 12,20 C7.581722,20 4,16.418278 4,12 C4,7.581722 7.581722,4 12,4 Z M9.5144,7.6295 C8.9934,7.1075 8.1494,7.1075 7.6284,7.6295 C7.1074,8.1495 7.1074,8.9935 7.6284,9.5145 L10.1144,12.0005 L7.6284,14.4855 C7.1074,15.0065 7.1074,15.8505 7.6284,16.3715 C7.8894,16.6315 8.2294,16.7615 8.5714,16.7615 C8.9124,16.7615 9.2534,16.6315 9.5144,16.3715 L12.0004,13.8855 L14.4854,16.3715 C14.7464,16.6315 15.0874,16.7615 15.4294,16.7615 C15.7694,16.7615 16.1104,16.6315 16.3714,16.3715 C16.8924,15.8505 16.8924,15.0065 16.3714,14.4855 L13.8854,12.0005 L16.3714,9.5145 C16.8924,8.9935 16.8924,8.1495 16.3714,7.6295 C15.8504,7.1075 15.0074,7.1075 14.4854,7.6295 L12.0004,10.1145 Z" id="Combined-Shape" fill="#DB0720"></path>
    </g>
</svg>