<?xml version="1.0" encoding="UTF-8"?>
<svg width="24px" height="24px" viewBox="0 0 24 24" version="1.1" xmlns="http://www.w3.org/2000/svg" xmlns:xlink="http://www.w3.org/1999/xlink">
    <title>player / playlist-prev</title>
    <g id="player-/-playlist-prev" stroke="none" stroke-width="1" fill="none" fill-rule="evenodd">
        <path d="M8.94117647,6.38965395 C8.94117647,6.04680651 9.19565905,5.90281059 9.50568858,6.06924744 L20.002772,11.6969322 C20.3128015,11.8633691 20.3128015,12.1364003 20.002772,12.3028371 L9.50568858,17.9311453 C9.19565905,18.0969588 8.94117647,17.9529629 8.94117647,17.6101154 L8.94117647,6.38965395 Z" id="Fill-1-Copy" fill="#000000" transform="translate(14.5882, 12) rotate(180) translate(-14.5882, -12)"></path>
        <path d="M7.16666667,18.2222222 C7.16666667,18.65 6.90952381,19 6.5952381,19 L3.73809524,19 C3.42380952,19 3.16666667,18.65 3.16666667,18.2222222 L3.16666667,5.77777778 C3.16666667,5.35 3.42380952,5 3.73809524,5 L6.5952381,5 C6.90952381,5 7.16666667,5.35 7.16666667,5.77777778 L7.16666667,18.2222222 Z" id="Fill-1-Copy" fill="#000000"></path>
    </g>
</svg>