<?xml version="1.0" encoding="UTF-8"?>
<svg width="24px" height="24px" viewBox="0 0 24 24" version="1.1" xmlns="http://www.w3.org/2000/svg" xmlns:xlink="http://www.w3.org/1999/xlink">
    <title>player / playlist-next</title>
    <g id="player-/-playlist-next" stroke="none" stroke-width="1" fill="none" fill-rule="evenodd">
        <path d="M3.89019608,6.38965395 C3.89019608,6.04680651 4.14467866,5.90281059 4.45470819,6.06924744 L14.9517916,11.6969322 C15.2618211,11.8633691 15.2618211,12.1364003 14.9517916,12.3028371 L4.45470819,17.9311453 C4.14467866,18.0969588 3.89019608,17.9529629 3.89019608,17.6101154 L3.89019608,6.38965395 Z" id="Fill-1-Copy-2" fill="#000000"></path>
        <path d="M21.1666667,18.2222222 C21.1666667,18.65 20.9095238,19 20.5952381,19 L17.7380952,19 C17.4238095,19 17.1666667,18.65 17.1666667,18.2222222 L17.1666667,5.77777778 C17.1666667,5.35 17.4238095,5 17.7380952,5 L20.5952381,5 C20.9095238,5 21.1666667,5.35 21.1666667,5.77777778 L21.1666667,18.2222222 Z" id="Fill-1-Copy-2" fill="#000000"></path>
    </g>
</svg>