<?xml version="1.0" encoding="UTF-8"?>
<svg width="24px" height="24px" viewBox="0 0 24 24" version="1.1" xmlns="http://www.w3.org/2000/svg" xmlns:xlink="http://www.w3.org/1999/xlink">
    <title>player / reset</title>
    <g id="player-/-reset" stroke="none" stroke-width="1" fill="none" fill-rule="evenodd">
        <path d="M12,19.75 C15.8659932,19.75 19,16.6159932 19,12.75 C19,8.88400675 15.8659932,5.75 12,5.75 C8.13400675,5.75 5,8.88400675 5,12.75" id="Oval" stroke="#000000" stroke-width="1.5" stroke-linecap="round" transform="translate(12, 12.75) rotate(-270) translate(-12, -12.75)"></path>
        <path d="M9.03054693,3.39442719 L11.7215299,8.7763932 C11.8450246,9.02338245 11.7449124,9.32371897 11.4979231,9.4472136 C11.4284954,9.48192745 11.3519389,9.5 11.2743163,9.5 L5.89235033,9.5 C5.61620795,9.5 5.39235033,9.27614237 5.39235033,9 C5.39235033,8.92237745 5.41042287,8.84582092 5.44513673,8.7763932 L8.13611974,3.39442719 C8.25961436,3.14743794 8.55995088,3.04732577 8.80694013,3.17082039 C8.90370383,3.21920224 8.98216508,3.29766349 9.03054693,3.39442719 Z" id="Triangle" fill="#000000" transform="translate(8.5833, 6) rotate(-90) translate(-8.5833, -6)"></path>
    </g>
</svg>