<?xml version="1.0" encoding="UTF-8"?>
<svg width="24px" height="24px" viewBox="0 0 24 24" version="1.1" xmlns="http://www.w3.org/2000/svg" xmlns:xlink="http://www.w3.org/1999/xlink">
    <title>player / settings</title>
    <g id="player-/-settings" stroke="none" stroke-width="1" fill="none" fill-rule="evenodd">
        <path d="M12.0008671,15 C10.3430636,15 9,13.6559023 9,12 C9,10.3432836 10.3430636,9 12.0008671,9 C13.6569364,9 15,10.3432836 15,12 C15,13.6559023 13.6569364,15 12.0008671,15 L12.0008671,15 Z M18.6182727,10.0023263 C18.1797273,9.89826151 17.6765455,9.46338895 17.5014545,9.03528483 L17.0899091,8.23491627 C16.8395455,7.84826888 16.7421818,7.16719414 16.8722727,6.72132286 L17.3942727,4.94376012 C17.5243636,4.49873489 17.3173636,3.93526188 16.9344545,3.69075182 L16.0655455,3.13912359 C15.6826364,2.89545959 15.1303636,2.98598753 14.8399091,3.34133087 L13.7451818,4.67471445 C13.4539091,5.02921173 12.8525455,5.25849279 12.4082727,5.1840399 C12.4082727,5.1840399 12.4000909,5.18234779 11.9762727,5.18234779 L11.5663636,5.18234779 C11.1319091,5.25426251 10.5387273,5.02328934 10.2474545,4.667946 L9.15681818,3.33879271 C8.86636364,2.98429542 8.31409091,2.89292142 7.93118182,3.13658543 L7.06227273,3.68905971 C6.67936364,3.93272371 6.47236364,4.49619672 6.60245455,4.94122195 L7.113,6.68155825 C7.24390909,7.12658348 7.14327273,7.8059661 6.89127273,8.19092138 L6.44945455,9.04289933 C6.27354545,9.47100345 5.77036364,9.90587601 5.33181818,10.0090948 L3.79772727,10.3703605 C3.35836364,10.4744254 3,10.9397559 3,11.4050865 L3,12.5904103 C3,13.0548948 3.35836364,13.5202254 3.79772727,13.6242902 L5.34654545,13.9889402 C5.78509091,14.093005 6.29072727,14.5270315 6.46827273,14.9534435 L6.89618182,15.7698871 C7.149,16.1548424 7.24881818,16.834225 7.11872727,17.2792503 L6.59836364,19.055967 C6.46827273,19.5009922 6.67445455,20.0644652 7.05818182,20.3098213 L7.92709091,20.8614495 C8.31,21.1059596 8.86227273,21.0145856 9.15354545,20.6600883 L10.2777273,19.2886322 C10.5681818,18.934135 11.1531818,18.6997776 11.5761818,18.7691541 L11.9762727,18.7691541 L12.387,18.7691541 C12.8206364,18.6972394 13.4138182,18.9290586 13.7050909,19.284402 L14.8358182,20.6617804 C15.1270909,21.0162777 15.6785455,21.1068057 16.0622727,20.8631417 L16.9295455,20.3106674 C17.3132727,20.0670034 17.5194545,19.5026843 17.3893636,19.0576591 L16.8583636,17.2479462 C16.7282727,16.802921 16.8272727,16.1226923 17.0784545,15.736891 L17.4769091,14.9729028 C17.6560909,14.5456447 18.1609091,14.1116182 18.5994545,14.0075534 L20.2022727,13.6302126 C20.6416364,13.5261478 21,13.0608172 21,12.5954867 L21,11.4101628 C21,10.9448322 20.6416364,10.4795017 20.2022727,10.3754369 L18.6182727,10.0023263 Z" id="Fill-1" stroke="#000000" stroke-width="1.5"></path>
    </g>
</svg>