<?xml version="1.0" encoding="UTF-8"?>
<svg width="24px" height="24px" viewBox="0 0 24 24" version="1.1" xmlns="http://www.w3.org/2000/svg" xmlns:xlink="http://www.w3.org/1999/xlink">
    <title>player / shuffle</title>
    <g id="player-/-shuffle" stroke="none" stroke-width="1" fill="none" fill-rule="evenodd">
        <path d="M18.9472136,16.3944272 L21.6381966,21.7763932 C21.7616912,22.0233825 21.6615791,22.323719 21.4145898,22.4472136 C21.3451621,22.4819275 21.2686056,22.5 21.190983,22.5 L15.809017,22.5 C15.5328746,22.5 15.309017,22.2761424 15.309017,22 C15.309017,21.9223775 15.3270895,21.8458209 15.3618034,21.7763932 L18.0527864,16.3944272 C18.176281,16.1474379 18.4766175,16.0473258 18.7236068,16.1708204 C18.8203705,16.2192022 18.8988317,16.2976635 18.9472136,16.3944272 Z" id="Triangle-Copy" fill="#000000" transform="translate(18.5, 19) rotate(90) translate(-18.5, -19)"></path>
        <path d="M18.9472136,3.39442719 L21.6381966,8.7763932 C21.7616912,9.02338245 21.6615791,9.32371897 21.4145898,9.4472136 C21.3451621,9.48192745 21.2686056,9.5 21.190983,9.5 L15.809017,9.5 C15.5328746,9.5 15.309017,9.27614237 15.309017,9 C15.309017,8.92237745 15.3270895,8.84582092 15.3618034,8.7763932 L18.0527864,3.39442719 C18.176281,3.14743794 18.4766175,3.04732577 18.7236068,3.17082039 C18.8203705,3.21920224 18.8988317,3.29766349 18.9472136,3.39442719 Z" id="Triangle" fill="#000000" transform="translate(18.5, 6) rotate(90) translate(-18.5, -6)"></path>
        <path d="M2,6 L2.55505371,6 C6.14490458,6 9.05505371,8.91014913 9.05505371,12.5 L9.05505371,13.0513916 C9.05505371,16.3367173 11.7183364,19 15.0036621,19 L15.0036621,19 L15.0036621,19" id="Path-2" stroke="#000000" stroke-width="1.5"></path>
        <path d="M2,6 C5.2853257,6 7.9486084,8.6632827 7.9486084,11.9486084 L7.9486084,12.5 C7.9486084,16.0898509 10.8587575,19 14.4486084,19 L15.0036621,19 L15.0036621,19" id="Path-2" stroke="#000000" stroke-width="1.5" transform="translate(8.5018, 12.5) scale(-1, 1) translate(-8.5018, -12.5)"></path>
    </g>
</svg>