<?xml version="1.0" encoding="UTF-8"?>
<svg width="24px" height="24px" viewBox="0 0 24 24" version="1.1" xmlns="http://www.w3.org/2000/svg" xmlns:xlink="http://www.w3.org/1999/xlink">
    <title>player / shuffle</title>
    <g id="player-/-shuffle" stroke="none" stroke-width="1" fill="none" fill-rule="evenodd">
        <path d="M19.4472136,15.8944272 L22.6381966,22.2763932 C22.7616912,22.5233825 22.6615791,22.823719 22.4145898,22.9472136 C22.3451621,22.9819275 22.2686056,23 22.190983,23 L15.809017,23 C15.5328746,23 15.309017,22.7761424 15.309017,22.5 C15.309017,22.4223775 15.3270895,22.3458209 15.3618034,22.2763932 L18.5527864,15.8944272 C18.676281,15.6474379 18.9766175,15.5473258 19.2236068,15.6708204 C19.3203705,15.7192022 19.3988317,15.7976635 19.4472136,15.8944272 Z" id="Triangle-Copy" fill="#000000" transform="translate(19, 19) rotate(90) translate(-19, -19)"></path>
        <path d="M19.4472136,2.89442719 L22.6381966,9.2763932 C22.7616912,9.52338245 22.6615791,9.82371897 22.4145898,9.9472136 C22.3451621,9.98192745 22.2686056,10 22.190983,10 L15.809017,10 C15.5328746,10 15.309017,9.77614237 15.309017,9.5 C15.309017,9.42237745 15.3270895,9.34582092 15.3618034,9.2763932 L18.5527864,2.89442719 C18.676281,2.64743794 18.9766175,2.54732577 19.2236068,2.67082039 C19.3203705,2.71920224 19.3988317,2.79766349 19.4472136,2.89442719 Z" id="Triangle" fill="#000000" transform="translate(19, 6) rotate(90) translate(-19, -6)"></path>
        <path d="M2,6 L2.55505371,6 C6.14490458,6 9.05505371,8.91014913 9.05505371,12.5 L9.05505371,13.0513916 C9.05505371,16.3367173 11.7183364,19 15.0036621,19 L15.0036621,19 L15.0036621,19" id="Path-2" stroke="#000000" stroke-width="2"></path>
        <path d="M2,6 C5.2853257,6 7.9486084,8.6632827 7.9486084,11.9486084 L7.9486084,12.5 C7.9486084,16.0898509 10.8587575,19 14.4486084,19 L15.0036621,19 L15.0036621,19" id="Path-2" stroke="#000000" stroke-width="2" transform="translate(8.5018, 12.5) scale(-1, 1) translate(-8.5018, -12.5)"></path>
    </g>
</svg>