<?xml version="1.0" encoding="UTF-8"?>
<svg width="24px" height="24px" viewBox="0 0 24 24" version="1.1" xmlns="http://www.w3.org/2000/svg" xmlns:xlink="http://www.w3.org/1999/xlink">
    <title>player / subtitles</title>
    <g id="player-/-subtitles" stroke="none" stroke-width="1" fill="none" fill-rule="evenodd">
        <path d="M12,3.75 C14.5832642,3.75 16.9265888,4.52583988 18.6210678,5.79669914 C20.225974,7.0003788 21.25,8.65383939 21.25,10.5 C21.25,12.5357222 20.0059114,14.3359439 18.1101867,15.5586781 L17.9727569,19.9777787 L12.7933616,17.2253662 C12.5317892,17.241683 12.2671901,17.25 12,17.25 C9.41673585,17.25 7.07341121,16.4741601 5.37893219,15.2033009 C3.77402598,13.9996212 2.75,12.3461606 2.75,10.5 C2.75,8.65383939 3.77402598,7.0003788 5.37893219,5.79669914 C7.07341121,4.52583988 9.41673585,3.75 12,3.75 Z" id="Combined-Shape" stroke="#000000" stroke-width="1.5"></path>
        <g id="Group" transform="translate(7, 9)" fill="#000000">
            <circle id="Oval" cx="1.25" cy="1.25" r="1.25"></circle>
            <circle id="Oval-Copy" cx="5" cy="1.25" r="1.25"></circle>
            <circle id="Oval-Copy-2" cx="8.75" cy="1.25" r="1.25"></circle>
        </g>
    </g>
</svg>