<?xml version="1.0" encoding="UTF-8"?>
<svg width="24px" height="24px" viewBox="0 0 24 24" version="1.1" xmlns="http://www.w3.org/2000/svg" xmlns:xlink="http://www.w3.org/1999/xlink">
    <title>player / vol-full</title>
    <g id="player-/-vol-full" stroke="none" stroke-width="1" fill="none" fill-rule="evenodd">
        <path d="M4.5,7.49604492 L6.18183329,7.49604492 C6.71282559,7.49604492 7.22202256,7.28488787 7.59718769,6.90911672 L10.6461614,3.85521785 C10.8412659,3.65979819 11.1578483,3.6595427 11.3532679,3.8546472 C11.4472107,3.94843848 11.5,4.07573772 11.5,4.2084858 L11.5,19.6188024 C11.5,19.8949447 11.2761424,20.1188024 11,20.1188024 C10.8515961,20.1188024 10.7108605,20.0528785 10.6158637,19.9388638 L7.59969754,16.3188753 C7.21971054,15.8628167 6.6567682,15.5991211 6.06315251,15.5991211 L4.5,15.5991211 C3.3954305,15.5991211 2.5,14.7036906 2.5,13.5991211 L2.5,9.49604492 C2.5,8.39147542 3.3954305,7.49604492 4.5,7.49604492 Z" id="Rectangle" stroke="#000000" stroke-width="1.5"></path>
        <path d="M14.9937178,16.0050773 C16.211737,15.0931648 17,13.6386368 17,12 C17,10.3730939 16.2229826,8.92766994 15.0198102,8.01459061" id="Oval" stroke="#000000" stroke-width="1.5" stroke-linecap="round"></path>
        <path d="M15.0260123,20.4786436 C18.5079949,19.2358198 21,15.9089294 21,12 C21,8.09102131 18.507932,4.76409627 15.0258806,3.52130939" id="Oval" stroke="#000000" stroke-width="1.5" stroke-linecap="round"></path>
    </g>
</svg>