<?xml version="1.0" encoding="UTF-8"?>
<svg width="24px" height="24px" viewBox="0 0 24 24" version="1.1" xmlns="http://www.w3.org/2000/svg" xmlns:xlink="http://www.w3.org/1999/xlink">
    <title>player / vol-half</title>
    <g id="player-/-vol-half" stroke="none" stroke-width="1" fill="none" fill-rule="evenodd">
        <path d="M4,6.99560547 L6.1830784,6.99560547 C6.71407071,6.99560547 7.22326768,6.78444842 7.59843281,6.40867727 L11.1461614,2.85521785 C11.3412659,2.65979819 11.6578483,2.6595427 11.8532679,2.8546472 C11.9472107,2.94843848 12,3.07573772 12,3.2084858 L12,20.6188024 C12,20.8949447 11.7761424,21.1188024 11.5,21.1188024 C11.3515961,21.1188024 11.2108605,21.0528785 11.1158637,20.9388638 L7.59969754,16.7187776 C7.21971054,16.262719 6.6567682,15.9990234 6.06315251,15.9990234 L4,15.9990234 C2.8954305,15.9990234 2,15.1035929 2,13.9990234 L2,8.99560547 C2,7.89103597 2.8954305,6.99560547 4,6.99560547 Z" id="Rectangle-Copy" fill="#000000"></path>
        <path d="M14.9937178,16.0050773 C16.211737,15.0931648 17,13.6386368 17,12 C17,10.3730939 16.2229826,8.92766994 15.0198102,8.01459061" id="Oval-Copy" stroke="#000000" stroke-width="1.8" stroke-linecap="round"></path>
    </g>
</svg>