<?xml version="1.0" encoding="UTF-8"?>
<svg width="476px" height="60px" viewBox="0 0 476 60" version="1.1" xmlns="http://www.w3.org/2000/svg" xmlns:xlink="http://www.w3.org/1999/xlink">
    <title>logo / VisionPlayerLogoDocs</title>
    <defs>
        <polygon id="path-1" points="0 0 14.4320338 0 14.4320338 23.7560297 0 23.7560297"></polygon>
        <path d="M38.229184,0 C37.9814767,0 37.7373956,0.00382998796 37.4941076,0.00867379626 L37.4941076,0.00867379626 C37.2546724,0.00416792808 37.0148972,0 36.770816,0 L36.770816,0 C20.520155,0 7.45070784,15.911685 0,23.9721199 L0,23.9721199 C7.85513016,31.9158529 15.7019883,39.8621768 23.8882258,44.3330118 L23.8882258,44.3330118 C25.8773626,45.5964573 28.2359074,46.6028429 31.024257,47.2391842 L31.024257,47.2391842 C32.9162827,47.7319008 34.8302914,48 36.770816,48 L36.770816,48 C37.0185233,48 37.2627178,47.99617 37.5058924,47.9913262 L37.5058924,47.9913262 C37.7454409,47.9957194 37.9851028,48 38.229184,48 L38.229184,48 C54.479845,48 67.5494055,32.0884277 75,24.0277674 L75,24.0277674 C67.1449832,16.0842597 59.2980117,8.13782324 51.1117742,3.66698818 L51.1117742,3.66698818 C49.1226374,2.40354274 46.7640926,1.39715708 43.9758563,0.760703197 L43.9758563,0.760703197 C42.0837173,0.267986511 40.1697086,0 38.229184,0 Z" id="path-3"></path>
        <linearGradient x1="50.0000227%" y1="-1.10455643e-05%" x2="50.0000227%" y2="100.000034%" id="linearGradient-5">
            <stop stop-color="#FF952A" offset="0%"></stop>
            <stop stop-color="#D8004B" offset="100%"></stop>
        </linearGradient>
    </defs>
    <g id="logo-/-VisionPlayerLogoDocs" stroke="none" stroke-width="1" fill="none" fill-rule="evenodd">
        <g id="Group-30" transform="translate(98, 12)">
            <path d="M24.9217301,3.36583938 C24.4594936,3.00843584 23.8621475,2.82929685 23.1295694,2.82929685 C22.6831201,2.82929685 22.2769346,2.87801666 21.9110127,2.9755812 C21.5443565,3.07314575 21.2016871,3.20344001 20.8836165,3.36583938 C20.1823682,6.13037636 19.4096488,8.95949831 18.5658255,11.85358 C17.7212679,14.7484113 16.845503,17.5609185 15.9374292,20.2926008 C15.0294778,23.0242832 14.1610557,25.577701 13.3330197,27.9512302 L13.1418592,27.9512302 C11.7081551,24.1143577 10.3858185,20.3338253 9.17546143,16.6097579 C7.96424765,12.88644 6.73822566,9.04119769 5.4958045,5.07315645 C5.24039345,4.2926401 4.91412327,3.72399245 4.5161373,3.36583938 C4.11729465,3.00843584 3.55213498,2.82929685 2.81955686,2.82929685 C2.21401116,2.82929685 1.65631679,2.96796092 1.14696327,3.24379001 C0.636875467,3.52049355 0.254676758,3.80494229 0,4.09751101 C0.478023746,5.72412808 1.03498383,7.56098989 1.67259358,9.60972041 C2.30946905,11.6585758 3.00251782,13.7561511 3.75149511,15.9024462 C4.49961574,18.0487412 5.25667024,20.1463165 6.02143481,22.1951719 C6.78607699,24.2439024 7.49466826,26.0898836 8.1479429,27.7317412 C8.80048326,29.3742235 9.38216448,30.6829126 9.89225229,31.6584331 C10.0834128,32.1142756 10.4813988,32.4556891 11.0869445,32.6829233 C11.6917559,32.9100325 12.3928819,33.0243367 13.1897105,33.0243367 C13.8587724,33.0243367 14.479983,32.9343924 15.0533423,32.7561279 C15.6268239,32.5777384 16.0248099,32.3902296 16.2481569,32.1951005 C16.6618077,31.4474388 17.1634512,30.3581138 17.7534544,28.9267507 C18.3426009,27.4961372 18.9958755,25.8460347 19.7127888,23.9755687 C20.4295796,22.1059772 21.1299713,20.187416 21.8154324,18.2195104 C22.5001592,16.2522294 23.1370347,14.3658983 23.7269155,12.5608917 C24.3161844,10.7560101 24.7782985,9.18748204 25.1128906,7.85368352 C25.4473604,6.52063454 25.6146565,5.57771881 25.6146565,5.02431172 C25.6146565,4.27665 25.3832323,3.72399245 24.9217301,3.36583938" id="Fill-1" fill="#000000"></path>
            <path d="M32.591637,0 C31.7628667,0 31.062475,0.276703543 30.488871,0.82923617 C29.9155117,1.38251833 29.6287709,2.08158516 29.6287709,2.92681142 C29.6287709,3.7400575 29.9155117,4.43137913 30.488871,4.99990185 C31.062475,5.56929902 31.7628667,5.85362284 32.591637,5.85362284 C33.4831892,5.85362284 34.2001025,5.56929902 34.7421319,4.99990185 C35.2834271,4.43137913 35.5545031,3.7400575 35.5545031,2.92681142 C35.5545031,2.08158516 35.2834271,1.38251833 34.7421319,0.82923617 C34.2001025,0.276703543 33.4831892,0 32.591637,0" id="Fill-3" fill="#000000"></path>
            <path d="M34.4315511,10.2194926 C34.0013787,9.87807912 33.3397821,9.70718501 32.4483523,9.70718501 C31.9704509,9.70718501 31.516414,9.74840947 31.086364,9.82923439 C30.6561915,9.91080884 30.3455862,9.98388855 30.1544257,10.0487234 L30.1544257,19.8536478 L30.1544257,22.3902011 L30.1544257,30.7316573 C30.1544257,31.5449034 30.376916,32.1304156 30.8234876,32.4878192 C31.2692025,32.8452227 31.9382644,33.0243617 32.830551,33.0243617 C33.3084523,33.0243617 33.7459677,32.9832622 34.1446879,32.9023123 C34.5427963,32.8208628 34.8534016,32.7316681 35.0766262,32.6341035 L35.0766262,22.3902011 L35.0766262,19.8536478 L35.0766262,12.048859 C35.0766262,11.1706532 34.8616012,10.560906 34.4315511,10.2194926" id="Fill-5" fill="#000000"></path>
            <path d="M51.5154173,19.3658126 L48.6959829,18.634141 C47.6445999,18.4069068 46.8956226,18.0571235 46.4499076,17.5852909 C46.0033361,17.1143327 45.7809681,16.5692955 45.7809681,15.9511785 C45.7809681,15.0732225 46.1706321,14.3985156 46.9516735,13.9268079 C47.7319806,13.4557248 48.7915631,13.2194961 50.129687,13.2194961 C50.989787,13.2194961 51.8260226,13.3170607 52.6385161,13.5121898 C53.4508873,13.7073189 54.1751434,13.9511678 54.8128756,14.2438614 C55.449751,14.536555 55.9597165,14.8132586 56.3420376,15.0732225 C56.6922946,14.8459883 56.9790354,14.5449248 57.20226,14.1706568 C57.4247503,13.7972631 57.5367298,13.3499153 57.5367298,12.829238 C57.5367298,12.1462861 57.2097253,11.5290436 56.5570626,10.9756365 C55.9037879,10.422979 54.9957141,9.9923708 53.833086,9.68293754 C52.6698459,9.37425381 51.3399217,9.21947472 49.8428238,9.21947472 C46.9434739,9.21947472 44.736928,9.87032143 43.2241652,11.1706407 C41.7106681,12.4717095 40.9542255,14.0654719 40.9542255,15.9511785 C40.9542255,17.6425054 41.4634567,19.0243992 42.4833875,20.0974842 C43.5027065,21.1706942 45.0797198,21.9679502 47.2144275,22.4877531 L50.5118857,23.365834 C51.5632687,23.5938178 52.3435757,23.9594662 52.8535412,24.4634039 C53.3627723,24.9679663 53.6181834,25.6425483 53.6181834,26.4877745 C53.6181834,28.4390654 52.1202288,29.414586 49.1261553,29.414586 C47.6602648,29.414586 46.3461278,29.1706121 45.1834996,28.6829143 C44.0201372,28.1950916 42.9926186,27.6585491 42.1011888,27.0731618 C41.6866813,27.3337503 41.3604111,27.6669189 41.1213992,28.0731672 C40.8825097,28.480165 40.7631874,28.9267632 40.7631874,29.414586 C40.7631874,30.5533803 41.5591593,31.5045409 43.1524494,32.2681927 C44.74525,33.0319695 46.7844998,33.4146074 49.2693421,33.4146074 C52.2636604,33.4146074 54.5499992,32.7964904 56.1271349,31.560881 C57.7040258,30.3253966 58.4926549,28.6180795 58.4926549,26.4389298 C58.4926549,24.5853284 57.9266385,23.0815102 56.7960744,21.9268507 C55.6647761,20.7729407 53.9048018,19.9192197 51.5154173,19.3658126" id="Fill-7" fill="#000000"></path>
            <path d="M66.4728979,0 C65.6441276,0 64.9437359,0.276703543 64.3701319,0.82923617 C63.7967726,1.38251833 63.5100318,2.08158516 63.5100318,2.92681142 C63.5100318,3.7400575 63.7967726,4.43137913 64.3701319,4.99990185 C64.9437359,5.56929902 65.6441276,5.85362284 66.4728979,5.85362284 C67.3644501,5.85362284 68.0813633,5.56929902 68.6233928,4.99990185 C69.164688,4.43137913 69.4357639,3.7400575 69.4357639,2.92681142 C69.4357639,2.08158516 69.164688,1.38251833 68.6233928,0.82923617 C68.0813633,0.276703543 67.3644501,0 66.4728979,0" id="Fill-9" fill="#000000"></path>
            <path d="M68.312812,10.2194926 C67.8826396,9.87807912 67.221043,9.70718501 66.3296131,9.70718501 C65.8517118,9.70718501 65.3976749,9.74840947 64.9676248,9.82923439 C64.5374524,9.91080884 64.2268471,9.98388855 64.0356866,10.0487234 L64.0356866,19.8536478 L64.0356866,22.3902011 L64.0356866,30.7316573 C64.0356866,31.5449034 64.2581769,32.1304156 64.7047485,32.4878192 C65.1504634,32.8452227 65.8195253,33.0243617 66.7118118,33.0243617 C67.1897132,33.0243617 67.6272285,32.9832622 68.0259488,32.9023123 C68.4240571,32.8208628 68.7346624,32.7316681 68.957887,32.6341035 L68.957887,22.3902011 L68.957887,19.8536478 L68.957887,12.048859 C68.957887,11.1706532 68.742862,10.560906 68.312812,10.2194926" id="Fill-11" fill="#000000"></path>
            <path d="M90.510076,27.2194587 C89.3945648,28.6508217 87.8654028,29.3658786 85.9224676,29.3658786 C83.9466117,29.3658786 82.409862,28.6585669 81.3108724,27.2438186 C80.2117605,25.8291951 79.6621433,23.8536692 79.6621433,21.3169911 C79.6621433,18.8132925 80.2274254,16.8460115 81.3586014,15.4146484 C82.4891655,13.9840349 84.0109845,13.2682284 85.9224676,13.2682284 C87.8973445,13.2682284 89.4348285,13.9840349 90.5339404,15.4146484 C91.6331748,16.8460115 92.1826695,18.8132925 92.1826695,21.3169911 C92.1826695,23.8216891 91.6248528,25.7888451 90.510076,27.2194587 M91.8481998,10.7073153 C90.159207,9.71567975 88.1998726,9.21948721 85.9701966,9.21948721 C83.7077222,9.21948721 81.7245233,9.71567975 80.0204776,10.7073153 C78.3158199,11.6997004 76.9860181,13.0975842 76.0302153,14.9023409 C75.0744126,16.7073474 74.5966336,18.8460222 74.5966336,21.3169911 C74.5966336,23.7888344 75.0663354,25.9267597 76.0062285,27.7317662 C76.945632,29.5365229 78.268091,30.9351563 79.9727486,31.9267918 C81.676672,32.9184273 83.6598708,33.4146199 85.9224676,33.4146199 C88.2162718,33.4146199 90.206936,32.9184273 91.8959287,31.9267918 C93.5841872,30.9351563 94.8902469,29.5289026 95.8145975,27.7072814 C96.7383362,25.8864097 97.2004503,23.7559798 97.2004503,21.3169911 C97.2004503,18.8460222 96.7300142,16.7073474 95.7906107,14.9023409 C94.8505952,13.0975842 93.5364582,11.6997004 91.8481998,10.7073153" id="Fill-13" fill="#000000"></path>
            <path d="M120.066617,11.3414848 C118.329895,9.92686139 115.916524,9.21954967 112.826748,9.21954967 C111.042053,9.21954967 109.42551,9.44740848 107.976141,9.90237656 C106.526038,10.3582191 105.35521,10.8620319 104.46378,11.4145645 C103.826048,11.8376774 103.356346,12.2850252 103.05394,12.7561083 C102.7508,13.2279409 102.599904,13.8375632 102.599904,14.5853498 L102.599904,20.0487145 L102.599904,22.5853926 L102.599904,30.7317198 C102.599904,31.5449659 102.822516,32.1303532 103.268965,32.4877567 C103.714803,32.8452852 104.383865,33.0242992 105.276151,33.0242992 C105.754053,33.0242992 106.191568,32.9831997 106.590288,32.9023748 C106.988274,32.8208003 107.298879,32.7317305 107.522104,32.634041 L107.522104,22.5853926 L107.522104,20.0487145 L107.522104,14.7317591 C108.159102,14.3415009 108.923622,13.9999625 109.816031,13.7072689 C110.70746,13.4147002 111.711114,13.2682909 112.826748,13.2682909 C114.323723,13.2682909 115.518538,13.6508039 116.410825,14.4147055 C117.302377,15.1791069 117.748948,16.3581263 117.748948,17.9511392 L117.748948,20.0487145 L117.748948,22.5853926 L117.748948,30.7317198 C117.748948,31.5449659 117.963851,32.1303532 118.394023,32.4877567 C118.824196,32.8452852 119.500601,33.0242992 120.425074,33.0242992 C120.870789,33.0242992 121.300839,32.9831997 121.715346,32.9023748 C122.128997,32.8208003 122.447802,32.7317305 122.671027,32.634041 L122.671027,22.5853926 L122.671027,20.0487145 L122.671027,17.756135 C122.671027,14.8947831 121.802727,12.7561083 120.066617,11.3414848" id="Fill-15" fill="#000000"></path>
            <path d="M144.199645,16.8536942 C142.940824,17.8459544 141.196515,18.3413974 138.966839,18.3413974 L134.904861,18.3413974 L134.904861,7.07312969 C135.509672,6.94358496 136.171147,6.84602041 136.88806,6.78043605 C137.604851,6.71572615 138.345628,6.68287151 139.110271,6.68287151 C141.339947,6.68287151 143.060147,7.15470414 144.27136,8.09749495 C145.48184,9.04116021 146.087386,10.4877638 146.087386,12.4389298 C146.087386,14.3902207 145.457853,15.8620587 144.199645,16.8536942 M148.190029,5.17080845 C146.214296,3.38266645 143.155849,2.48784592 139.01469,2.48784592 C137.803476,2.48784592 136.513204,2.56092564 135.143873,2.70733492 C133.773685,2.8537442 132.594658,3.0898479 131.607403,3.41464664 C131.097437,3.57779554 130.691252,3.81314971 130.388846,4.12195836 C130.085706,4.43139162 129.934809,4.8619998 129.934809,5.41465735 L129.934809,20.146279 L129.934809,22.4878281 L129.934809,30.6341553 C129.934809,31.4801311 130.149834,32.0898782 130.580007,32.4633968 C131.010179,32.8367904 131.703105,33.0242992 132.658786,33.0242992 C133.136809,33.0242992 133.582402,32.9831997 133.996909,32.9023748 C134.41056,32.8208003 134.729365,32.7317305 134.95259,32.634041 L134.95259,22.4878281 L139.301431,22.4878281 C141.913306,22.4878281 144.095865,22.0730851 145.848496,21.2439738 C147.600148,20.4146127 148.922607,19.2439631 149.814894,17.7316502 C150.706324,16.2194622 151.152895,14.4390654 151.152895,12.39021 C151.152895,9.36583403 150.165029,6.95957505 148.190029,5.17080845" id="Fill-17" fill="#000000"></path>
            <path d="M161.16447,1.21945687 C160.73442,0.862053335 160.057158,0.682914337 159.13342,0.682914337 C158.686971,0.682914337 158.256921,0.731759071 157.843147,0.829198693 C157.428885,0.926763238 157.109957,1.00846261 156.887467,1.07317252 L156.887467,19.8536603 L156.887467,22.3902136 L156.887467,30.7316698 C156.887467,31.5449159 157.109957,32.1303032 157.556529,32.4878316 C158.002244,32.8452352 158.671306,33.0243742 159.563592,33.0243742 C160.041494,33.0243742 160.487331,32.9832746 160.901716,32.9023248 C161.315245,32.8208753 161.618507,32.7316805 161.809545,32.634116 L161.809545,22.7804717 L161.809545,20.2926383 L161.809545,3.02433849 C161.809545,2.17911223 161.594642,1.57773487 161.16447,1.21945687" id="Fill-19" fill="#000000"></path>
            <path d="M181.928409,28.4390405 C181.546088,28.6668993 180.948742,28.9023783 180.136249,29.1463522 C179.324,29.3902011 178.344333,29.5121255 177.197369,29.5121255 C175.508377,29.5121255 174.250168,29.2034418 173.42201,28.5853248 C172.593239,27.9679574 172.179589,27.1218566 172.179589,26.0487716 C172.179589,25.0082913 172.553588,24.21953 173.302687,23.6829875 C174.050808,23.1463147 175.15812,22.8292665 176.623888,22.731577 L181.928409,22.1463147 L181.928409,28.4390405 Z M184.102769,11.1951005 C182.365925,9.87804164 180.016926,9.21944973 177.053938,9.21944973 C175.842846,9.21944973 174.656354,9.33375391 173.493726,9.5609881 C172.330363,9.78884691 171.302967,10.1143952 170.411415,10.5365086 C169.295781,11.0570611 168.738821,11.8217123 168.738821,12.829213 C168.738821,13.2523258 168.858266,13.6585741 169.097155,14.0488322 C169.336045,14.4390904 169.599044,14.7483988 169.885784,14.975633 C170.809401,14.52054 171.860661,14.1142917 173.039689,13.7561386 C174.217982,13.3986101 175.444738,13.2194711 176.719468,13.2194711 C178.344333,13.2194711 179.610741,13.5533892 180.51857,14.2194765 C181.426521,14.8864382 181.880558,15.9351634 181.880558,17.3657769 L181.880558,18.4878316 L175.238035,19.1707835 C172.721006,19.3986423 170.777337,20.0899639 169.407761,21.2438739 C168.037695,22.3985334 167.352846,24.0486359 167.352846,26.1950559 C167.352846,28.5693347 168.220534,30.3742163 169.9575,31.6097008 C171.693488,32.8451852 174.106737,33.4634271 177.197369,33.4634271 C178.853564,33.4634271 180.343196,33.2842881 181.665655,32.9267597 C182.987135,32.5693561 184.062383,32.1463682 184.891275,31.6584206 C185.464757,31.3338717 185.910472,30.9596036 186.229399,30.5364908 C186.54747,30.1142524 186.707301,29.5289901 186.707301,28.7804539 L186.707301,17.4146217 C186.707301,14.5853748 185.838756,12.5121594 184.102769,11.1951005 L184.102769,11.1951005 Z" id="Fill-21" fill="#000000"></path>
            <path d="M211.198711,9.95123379 C210.736597,9.62643505 210.154916,9.46341106 209.454524,9.46341106 C209.072203,9.46341106 208.705547,9.51213088 208.355412,9.60982034 C208.004421,9.70725997 207.669951,9.82168906 207.351758,9.95123379 C206.937373,11.9023998 206.427408,13.9678699 205.822596,16.146395 C205.217051,18.3254198 204.580053,20.4070049 203.910991,22.3901511 C203.241929,24.3741717 202.588654,26.0654987 201.951656,27.4633825 L201.760618,27.4633825 C200.677049,24.7315753 199.657852,22.0815923 198.702172,19.5121844 C197.746369,16.943651 196.838295,14.3415134 195.978195,11.7073956 C195.722784,10.8620444 195.37265,10.2766571 194.926812,9.95123379 C194.480363,9.62643505 193.906882,9.46341106 193.206367,9.46341106 C192.664338,9.46341106 192.162572,9.57771524 191.701192,9.80482451 C191.238833,10.0326833 190.864834,10.325377 190.578094,10.6829054 C191.310549,13.1218941 192.059527,15.4145985 192.824046,17.5608935 C193.588689,19.7073135 194.321267,21.6264993 195.022393,23.3170767 C195.722784,25.0082788 196.343995,26.3902974 196.886147,27.4633825 C197.490958,28.6996165 198.040453,29.5533375 198.534753,30.0244206 C199.028442,30.4961283 199.545873,30.8131818 200.088025,30.9755812 C199.577937,31.9511017 198.941061,32.9832122 198.176419,34.0731618 C197.411899,35.162237 196.615071,36.1707371 195.787035,37.0975378 C194.958265,38.0243385 194.193622,38.7963601 193.493108,39.414602 C193.620141,40.129534 193.938946,40.7392812 194.449033,41.2438435 C194.958265,41.7476564 195.659268,42 196.551555,42 C197.698518,42 198.917197,41.2515887 200.207347,39.7560155 C201.49762,38.2598176 202.907459,36.0807928 204.436744,33.2195657 C205.169199,31.8863918 205.901777,30.3901939 206.634967,28.7317216 C207.367423,27.0732493 208.044807,25.3741771 208.666018,23.6341303 C209.287228,21.8947081 209.844311,20.2278659 210.338611,18.6341035 C210.832177,17.0410906 211.214499,15.6180974 211.485575,14.3658733 C211.755794,13.1142738 211.891638,12.1631132 211.891638,11.5121416 C211.891638,10.7972096 211.660214,10.2766571 211.198711,9.95123379" id="Fill-23" fill="#000000"></path>
            <path d="M219.88478,20.1967477 C219.980482,18.0022325 220.581745,16.2942909 221.688322,15.0731725 C222.866615,13.7728532 224.348048,13.1218816 226.132621,13.1218816 C227.884396,13.1218816 229.238919,13.642559 230.194721,14.6829143 C231.150402,15.7240192 231.676032,16.9923583 231.771612,18.4878067 L219.88478,20.1967477 Z M231.508858,10.5121237 C229.963175,9.65090738 228.187536,9.21954967 226.180472,9.21954967 C224.651188,9.21954967 223.217606,9.48026312 221.879483,10.000066 C220.541481,10.5206185 219.378119,11.2850198 218.390864,12.2926455 C217.402997,13.3011455 216.62269,14.5449998 216.049331,16.0243331 C215.475849,17.5045409 215.189108,19.2034882 215.189108,21.1219245 C215.189108,23.7888969 215.698339,26.0411263 216.71827,27.8779881 C217.737589,29.7157244 219.179493,31.0974932 221.043125,32.0242939 C222.907001,32.9510946 225.064961,33.4145574 227.518474,33.4145574 C229.015694,33.4145574 230.361895,33.2515334 231.55671,32.9267347 C232.75128,32.6020609 233.698883,32.1463432 234.400009,31.5608311 C235.100523,30.9755687 235.451392,30.3254715 235.451392,29.6096651 C235.451392,29.154697 235.331825,28.7317091 235.092935,28.3414509 C234.854046,27.9511927 234.54344,27.642509 234.161119,27.4146502 C233.492057,27.902348 232.599771,28.3581905 231.484994,28.7805538 C230.36936,29.2034168 229.143338,29.4146609 227.805215,29.4146609 C225.574927,29.4146609 223.774689,28.8376435 222.405113,27.6829839 C221.317627,26.7669266 220.582846,25.4855955 220.198077,23.8417391 L234.208848,21.8048763 C234.90924,21.7400414 235.451392,21.5121826 235.833713,21.1219245 C236.216034,20.7316663 236.407072,20.1304138 236.407072,19.3170428 C236.407072,17.3658769 235.977144,15.6265796 235.1168,14.097652 C234.2567,12.569349 233.053808,11.3742145 231.508858,10.5121237 L231.508858,10.5121237 Z" id="Fill-25" fill="#000000"></path>
            <g id="Group-29" transform="translate(241.568, 9.2683)">
                <mask id="mask-2" fill="white">
                    <use xlink:href="#path-1"></use>
                </mask>
                <g id="Clip-28"></g>
                <path d="M10.274451,0 C8.55412847,0 6.96891557,0.19512909 5.51954659,0.585387269 C4.06944332,0.975645448 2.89861557,1.46334325 2.00706335,2.04873052 C1.33800144,2.50457306 0.836357983,2.98402597 0.501765837,3.48783879 C0.167296073,3.99240114 0,4.6341285 0,5.41464485 L0,10.5853159 L0,12.6828911 L0,21.4633254 C0,22.2765715 0.222490315,22.8620837 0.66906191,23.2194872 C1.11477683,23.5768907 1.78383874,23.7560297 2.67612526,23.7560297 C3.15402662,23.7560297 3.59166434,23.7149302 3.99026222,23.6339804 C4.3882482,23.5525308 4.69885349,23.4633361 4.92220048,23.3657716 L4.92220048,12.6828911 L4.92220048,11.0242939 L4.92220048,5.5122094 C5.62259216,5.12195122 6.50667909,4.78053777 7.57446127,4.48784414 C8.64150915,4.19502558 9.82800178,4.04874123 11.1346735,4.04874123 C11.6439046,4.04874123 12.1456704,4.08159587 12.639971,4.14630577 C13.1335372,4.21189013 13.5398452,4.27660004 13.85865,4.34143486 C14.0176241,4.11432559 14.1527338,3.82925223 14.2647132,3.48783879 C14.3760808,3.14642534 14.4321317,2.78052707 14.4321317,2.39026889 C14.4321317,0.797255986 13.0461565,0 10.274451,0" id="Fill-27" fill="#000000" mask="url(#mask-2)"></path>
            </g>
        </g>
        <g id="Group" transform="translate(5, 6)">
            <g id="Group-33-Copy">
                <mask id="mask-4" fill="white">
                    <use xlink:href="#path-3"></use>
                </mask>
                <g id="Clip-32"></g>
                <path d="M38.229184,0 C37.9814767,0 37.7373956,0.00382998796 37.4941076,0.00867379626 L37.4941076,0.00867379626 C37.2546724,0.00416792808 37.0148972,0 36.770816,0 L36.770816,0 C20.520155,0 7.45070784,15.911685 0,23.9721199 L0,23.9721199 C7.85513016,31.9158529 15.7019883,39.8621768 23.8882258,44.3330118 L23.8882258,44.3330118 C25.8773626,45.5964573 28.2359074,46.6028429 31.024257,47.2391842 L31.024257,47.2391842 C32.9162827,47.7319008 34.8302914,48 36.770816,48 L36.770816,48 C37.0185233,48 37.2627178,47.99617 37.5058924,47.9913262 L37.5058924,47.9913262 C37.7454409,47.9957194 37.9851028,48 38.229184,48 L38.229184,48 C54.479845,48 67.5494055,32.0884277 75,24.0277674 L75,24.0277674 C67.1449832,16.0842597 59.2980117,8.13782324 51.1117742,3.66698818 L51.1117742,3.66698818 C49.1226374,2.40354274 46.7640926,1.39715708 43.9758563,0.760703197 L43.9758563,0.760703197 C42.0837173,0.267986511 40.1697086,0 38.229184,0 Z" id="Fill-31" fill="url(#linearGradient-5)" mask="url(#mask-4)"></path>
            </g>
            <polygon id="Star" fill="#FFFFFF" transform="translate(37.5, 24.1313) rotate(22.5) translate(-37.5, -24.1313)" points="37.5 30.9335751 30.6116982 40.7610909 32.6900363 28.941223 20.8701684 31.0195611 30.6976842 24.1312593 20.8701684 17.2429575 32.6900363 19.3212956 30.6116982 7.50142771 37.5 17.3289434 44.3883018 7.50142771 42.3099637 19.3212956 54.1298316 17.2429575 44.3023158 24.1312593 54.1298316 31.0195611 42.3099637 28.941223 44.3883018 40.7610909"></polygon>
        </g>
        <g id="Docs" transform="translate(368.984, 14.74)" fill="#000000" fill-rule="nonzero">
            <path d="M19.968,14.952 C19.968,18.656 19.074,21.458 17.286,23.358 C15.498,25.258 12.928,26.208 9.576,26.208 C8.776,26.208 7.98,26.178 7.188,26.118 C6.396,26.058 5.668,25.948 5.004,25.788 L5.004,4.476 C5.604,4.364 6.25,4.28 6.942,4.224 C7.634,4.168 8.408,4.14 9.264,4.14 C11.272,4.14 13.08,4.516 14.688,5.268 C16.296,6.02 17.578,7.186 18.534,8.766 C19.49,10.346 19.968,12.408 19.968,14.952 Z M25.116,14.916 C25.116,11.572 24.444,8.802 23.1,6.606 C21.756,4.41 19.892,2.76 17.508,1.656 C15.124,0.552 12.34,-7.10542736e-15 9.156,-7.10542736e-15 C7.916,-7.10542736e-15 6.636,0.054 5.316,0.162 C3.996,0.27 2.792,0.5 1.704,0.852 C1.168,1.028 0.75,1.264 0.45,1.56 C0.15,1.856 0,2.28 0,2.832 L0,26.94 C0,28.148 0.724,28.992 2.172,29.472 C3.356,29.856 4.636,30.098 6.012,30.198 C7.388,30.298 8.584,30.348 9.6,30.348 C12.736,30.348 15.464,29.786 17.784,28.662 C20.104,27.538 21.906,25.834 23.19,23.55 C24.474,21.266 25.116,18.388 25.116,14.916 Z" id="Shape"></path>
            <path d="M52.356,18.528 C52.356,20.944 51.89075,23.043625 50.96025,24.826875 C50.02975,26.610125 48.717,27.988125 47.022,28.960875 C45.327,29.933625 43.333,30.42 41.04,30.42 C38.752,30.42 36.754,29.936 35.046,28.968 C33.338,28 32.018,26.624 31.086,24.84 C30.154,23.056 29.688,20.952 29.688,18.528 C29.688,16.092 30.162,13.989 31.11,12.219 C32.058,10.449 33.386,9.078 35.094,8.106 C36.802,7.134 38.7855,6.648 41.0445,6.648 C43.3035,6.648 45.280125,7.13575 46.974375,8.11125 C48.668625,9.08675 49.989125,10.46075 50.935875,12.23325 C51.882625,14.00575 52.356,16.104 52.356,18.528 Z M41.037,10.62 C39.103,10.62 37.568,11.32 36.432,12.72 C35.296,14.12 34.728,16.056 34.728,18.528 C34.728,21.04 35.282875,22.988 36.392625,24.372 C37.502375,25.756 39.0515,26.448 41.04,26.448 C43.008,26.448 44.546,25.748 45.654,24.348 C46.762,22.948 47.316,21.008 47.316,18.528 C47.316,16.064 46.76025,14.13 45.64875,12.726 C44.53725,11.322 43,10.62 41.037,10.62 Z" id="Shape"></path>
            <path d="M68.808,10.668 C66.776,10.668 65.074,11.348 63.702,12.708 C62.33,14.068 61.644,16.028 61.644,18.588 C61.644,21.124 62.306,23.064 63.63,24.408 C64.954,25.752 66.676,26.424 68.796,26.424 C70.044,26.424 71.098,26.256 71.958,25.92 C72.818,25.584 73.576,25.204 74.232,24.78 C74.648,25.036 74.978,25.336 75.222,25.68 C75.466,26.024 75.588,26.444 75.588,26.94 C75.588,27.932 74.932,28.758 73.62,29.418 C72.308,30.078 70.616,30.408 68.544,30.408 C66.224,30.408 64.164,29.974 62.364,29.106 C60.564,28.238 59.158,26.926 58.146,25.17 C57.134,23.414 56.628,21.22 56.628,18.588 C56.628,15.94 57.16,13.732 58.224,11.964 C59.288,10.196 60.718,8.868 62.514,7.98 C64.31,7.092 66.276,6.648 68.412,6.648 C70.468,6.648 72.14,7.004 73.428,7.716 C74.716,8.428 75.36,9.272 75.36,10.248 C75.36,10.688 75.24,11.082 75,11.43 C74.76,11.778 74.46,12.06 74.1,12.276 C73.436,11.852 72.69,11.478 71.862,11.154 C71.034,10.83 70.016,10.668 68.808,10.668 Z" id="Path"></path>
            <path d="M97.644,23.592 C97.644,25.736 96.85,27.412 95.262,28.62 C93.674,29.828 91.372,30.432 88.356,30.432 C85.852,30.432 83.806,30.052 82.218,29.292 C80.63,28.532 79.836,27.608 79.836,26.52 C79.836,26.04 79.954,25.594 80.19,25.182 C80.426,24.77 80.756,24.44 81.18,24.192 C82.06,24.776 83.082,25.31 84.246,25.794 C85.41,26.278 86.74,26.52 88.236,26.52 C91.244,26.52 92.748,25.548 92.748,23.604 C92.748,22.796 92.49,22.138 91.974,21.63 C91.458,21.122 90.68,20.752 89.64,20.52 L86.292,19.656 C84.14,19.16 82.556,18.386 81.54,17.334 C80.524,16.282 80.016,14.924 80.016,13.26 C80.016,11.388 80.776,9.816 82.296,8.544 C83.816,7.272 86.024,6.636 88.92,6.636 C90.44,6.636 91.782,6.788 92.946,7.092 C94.11,7.396 95.022,7.816 95.682,8.352 C96.342,8.888 96.672,9.5 96.672,10.188 C96.672,10.676 96.56,11.108 96.336,11.484 C96.112,11.86 95.816,12.152 95.448,12.36 C95.072,12.112 94.568,11.846 93.936,11.562 C93.304,11.278 92.58,11.038 91.764,10.842 C90.948,10.646 90.096,10.548 89.208,10.548 C87.888,10.548 86.832,10.782 86.04,11.25 C85.248,11.718 84.852,12.388 84.852,13.26 C84.852,13.876 85.078,14.41 85.53,14.862 C85.982,15.314 86.728,15.66 87.768,15.9 L90.624,16.596 C93.024,17.156 94.794,18.004 95.934,19.14 C97.074,20.276 97.644,21.76 97.644,23.592 Z" id="Path"></path>
        </g>
    </g>
</svg>