<?xml version="1.0" encoding="UTF-8"?>
<svg width="87px" height="60px" viewBox="0 0 87 60" version="1.1" xmlns="http://www.w3.org/2000/svg" xmlns:xlink="http://www.w3.org/1999/xlink">
    <title>logo / VisionPlayerIcon</title>
    <defs>
        <path d="M38.229184,0 C37.9814767,0 37.7373956,0.00382998796 37.4941076,0.00867379626 L37.4941076,0.00867379626 C37.2546724,0.00416792808 37.0148972,0 36.770816,0 L36.770816,0 C20.520155,0 7.45070784,15.911685 0,23.9721199 L0,23.9721199 C7.85513016,31.9158529 15.7019883,39.8621768 23.8882258,44.3330118 L23.8882258,44.3330118 C25.8773626,45.5964573 28.2359074,46.6028429 31.024257,47.2391842 L31.024257,47.2391842 C32.9162827,47.7319008 34.8302914,48 36.770816,48 L36.770816,48 C37.0185233,48 37.2627178,47.99617 37.5058924,47.9913262 L37.5058924,47.9913262 C37.7454409,47.9957194 37.9851028,48 38.229184,48 L38.229184,48 C54.479845,48 67.5494055,32.0884277 75,24.0277674 L75,24.0277674 C67.1449832,16.0842597 59.2980117,8.13782324 51.1117742,3.66698818 L51.1117742,3.66698818 C49.1226374,2.40354274 46.7640926,1.39715708 43.9758563,0.760703197 L43.9758563,0.760703197 C42.0837173,0.267986511 40.1697086,0 38.229184,0 Z" id="path-1"></path>
        <linearGradient x1="50.0000227%" y1="-1.10455643e-05%" x2="50.0000227%" y2="100.000034%" id="linearGradient-3">
            <stop stop-color="#FF952A" offset="0%"></stop>
            <stop stop-color="#D8004B" offset="100%"></stop>
        </linearGradient>
    </defs>
    <g id="logo-/-VisionPlayerIcon" stroke="none" stroke-width="1" fill="none" fill-rule="evenodd">
        <g id="Group" transform="translate(6, 6)">
            <g id="Group-33-Copy">
                <mask id="mask-2" fill="white">
                    <use xlink:href="#path-1"></use>
                </mask>
                <g id="Clip-32"></g>
                <path d="M38.229184,0 C37.9814767,0 37.7373956,0.00382998796 37.4941076,0.00867379626 L37.4941076,0.00867379626 C37.2546724,0.00416792808 37.0148972,0 36.770816,0 L36.770816,0 C20.520155,0 7.45070784,15.911685 0,23.9721199 L0,23.9721199 C7.85513016,31.9158529 15.7019883,39.8621768 23.8882258,44.3330118 L23.8882258,44.3330118 C25.8773626,45.5964573 28.2359074,46.6028429 31.024257,47.2391842 L31.024257,47.2391842 C32.9162827,47.7319008 34.8302914,48 36.770816,48 L36.770816,48 C37.0185233,48 37.2627178,47.99617 37.5058924,47.9913262 L37.5058924,47.9913262 C37.7454409,47.9957194 37.9851028,48 38.229184,48 L38.229184,48 C54.479845,48 67.5494055,32.0884277 75,24.0277674 L75,24.0277674 C67.1449832,16.0842597 59.2980117,8.13782324 51.1117742,3.66698818 L51.1117742,3.66698818 C49.1226374,2.40354274 46.7640926,1.39715708 43.9758563,0.760703197 L43.9758563,0.760703197 C42.0837173,0.267986511 40.1697086,0 38.229184,0 Z" id="Fill-31" fill="url(#linearGradient-3)" mask="url(#mask-2)"></path>
            </g>
            <polygon id="Star" fill="#FFFFFF" transform="translate(37.5, 24.1313) rotate(22.5) translate(-37.5, -24.1313)" points="37.5 30.9335751 30.6116982 40.7610909 32.6900363 28.941223 20.8701684 31.0195611 30.6976842 24.1312593 20.8701684 17.2429575 32.6900363 19.3212956 30.6116982 7.50142771 37.5 17.3289434 44.3883018 7.50142771 42.3099637 19.3212956 54.1298316 17.2429575 44.3023158 24.1312593 54.1298316 31.0195611 42.3099637 28.941223 44.3883018 40.7610909"></polygon>
        </g>
    </g>
</svg>