<?xml version="1.0" encoding="UTF-8"?>
<svg width="32px" height="32px" viewBox="0 0 32 32" version="1.1" xmlns="http://www.w3.org/2000/svg" xmlns:xlink="http://www.w3.org/1999/xlink">
    <title>logo / favicon</title>
    <defs>
        <path d="M16.3111185,0 C16.2054301,0 16.1012888,0.00167561973 15.9974859,0.00379478587 L15.9974859,0.00379478587 C15.8953269,0.00182346853 15.7930228,0 15.6888815,0 L15.6888815,0 C8.75526614,0 3.17896868,6.96136218 0,10.4878025 L0,10.4878025 C3.3515222,13.9631856 6.69951501,17.4397023 10.1923097,19.3956927 L10.1923097,19.3956927 C11.0410081,19.9484501 12.0473205,20.3887438 13.2370163,20.6671431 L13.2370163,20.6671431 C14.0442806,20.8827066 14.8609244,21 15.6888815,21 L15.6888815,21 C15.7945699,21 15.8987596,20.9983244 16.0025141,20.9962052 L16.0025141,20.9962052 C16.1047215,20.9981272 16.2069772,21 16.3111185,21 L16.3111185,21 C23.2447339,21 28.8210797,14.0386871 32,10.5121482 L32,10.5121482 C28.6485261,7.03686363 25.300485,3.56029767 21.8076903,1.60430733 L21.8076903,1.60430733 C20.9589919,1.05154995 19.9526795,0.611256222 18.763032,0.332807649 L18.763032,0.332807649 C17.9557194,0.117244098 17.1390756,0 16.3111185,0 Z" id="path-1"></path>
        <linearGradient x1="50.0000227%" y1="-1.10455643e-05%" x2="50.0000227%" y2="100.000034%" id="linearGradient-3">
            <stop stop-color="#FF952A" offset="0%"></stop>
            <stop stop-color="#D8004B" offset="100%"></stop>
        </linearGradient>
    </defs>
    <g id="logo-/-favicon" stroke="none" stroke-width="1" fill="none" fill-rule="evenodd">
        <g id="Group" transform="translate(0, 5.5)">
            <g id="Group-33-Copy">
                <mask id="mask-2" fill="white">
                    <use xlink:href="#path-1"></use>
                </mask>
                <g id="Clip-32"></g>
                <path d="M16.3111185,0 C16.2054301,0 16.1012888,0.00167561973 15.9974859,0.00379478587 L15.9974859,0.00379478587 C15.8953269,0.00182346853 15.7930228,0 15.6888815,0 L15.6888815,0 C8.75526614,0 3.17896868,6.96136218 0,10.4878025 L0,10.4878025 C3.3515222,13.9631856 6.69951501,17.4397023 10.1923097,19.3956927 L10.1923097,19.3956927 C11.0410081,19.9484501 12.0473205,20.3887438 13.2370163,20.6671431 L13.2370163,20.6671431 C14.0442806,20.8827066 14.8609244,21 15.6888815,21 L15.6888815,21 C15.7945699,21 15.8987596,20.9983244 16.0025141,20.9962052 L16.0025141,20.9962052 C16.1047215,20.9981272 16.2069772,21 16.3111185,21 L16.3111185,21 C23.2447339,21 28.8210797,14.0386871 32,10.5121482 L32,10.5121482 C28.6485261,7.03686363 25.300485,3.56029767 21.8076903,1.60430733 L21.8076903,1.60430733 C20.9589919,1.05154995 19.9526795,0.611256222 18.763032,0.332807649 L18.763032,0.332807649 C17.9557194,0.117244098 17.1390756,0 16.3111185,0 Z" id="Fill-31" fill="url(#linearGradient-3)" mask="url(#mask-2)"></path>
            </g>
            <polygon id="Star" fill="#FFFFFF" transform="translate(15.75, 10.5574) rotate(22.5) translate(-15.75, -10.5574)" points="15.75 13.5334391 12.736368 17.8329773 13.6456409 12.661785 8.47444868 13.571058 12.7739868 10.5574259 8.47444868 7.54379391 13.6456409 8.45306684 12.736368 3.28187462 15.75 7.58141276 18.763632 3.28187462 17.8543591 8.45306684 23.0255513 7.54379391 18.7260132 10.5574259 23.0255513 13.571058 17.8543591 12.661785 18.763632 17.8329773"></polygon>
        </g>
    </g>
</svg>